<svg xmlns="http://www.w3.org/2000/svg" xmlns:xlink="http://www.w3.org/1999/xlink" width="500" zoomAndPan="magnify" viewBox="0 0 375 374.999991" height="500" preserveAspectRatio="xMidYMid meet" version="1.0"><defs><g/></defs><rect x="-37.5" width="450" fill="#ffffff" y="-37.499999" height="449.999989" fill-opacity="1"/><rect x="-37.5" width="450" fill="#efefef" y="-37.499999" height="449.999989" fill-opacity="1"/><g fill="#ef9651" fill-opacity="1"><g transform="translate(9.269535, 197.629206)"><g><path d="M 8.421875 0.28125 C 6.691406 0.28125 5.15625 -0.472656 3.8125 -1.984375 C 2.46875 -3.492188 1.796875 -5.859375 1.796875 -9.078125 C 1.796875 -11.328125 2.09375 -13.578125 2.6875 -15.828125 C 3.289062 -18.085938 3.90625 -20.15625 4.53125 -22.03125 C 5.488281 -25.101562 6.328125 -27.9375 7.046875 -30.53125 C 7.773438 -33.125 8.140625 -35.59375 8.140625 -37.9375 C 8.140625 -39.570312 7.957031 -40.703125 7.59375 -41.328125 C 7.238281 -41.953125 6.769531 -42.265625 6.1875 -42.265625 C 5.5625 -42.265625 4.878906 -41.925781 4.140625 -41.25 C 3.398438 -40.582031 2.664062 -39.550781 1.9375 -38.15625 L 1.4375 -38.296875 C 1.53125 -41.085938 2.128906 -43.488281 3.234375 -45.5 C 4.335938 -47.519531 5.726562 -49.082031 7.40625 -50.1875 C 9.09375 -51.289062 10.820312 -51.84375 12.59375 -51.84375 C 14.613281 -51.84375 16.34375 -51.035156 17.78125 -49.421875 C 19.21875 -47.816406 19.9375 -45.046875 19.9375 -41.109375 C 19.9375 -39.046875 19.734375 -36.882812 19.328125 -34.625 C 18.921875 -32.375 18.453125 -30.117188 17.921875 -27.859375 C 19.554688 -28.535156 21.285156 -29.015625 23.109375 -29.296875 C 24.929688 -29.585938 26.875 -29.734375 28.9375 -29.734375 L 30.8125 -29.734375 C 31.4375 -32.140625 31.976562 -34.503906 32.4375 -36.828125 C 32.894531 -39.148438 33.125 -41.320312 33.125 -43.34375 C 33.125 -44.0625 33.085938 -44.734375 33.015625 -45.359375 C 32.941406 -45.984375 32.859375 -46.582031 32.765625 -47.15625 L 32.765625 -47.734375 C 33.484375 -49.035156 34.523438 -50.066406 35.890625 -50.828125 C 37.253906 -51.597656 38.632812 -51.984375 40.03125 -51.984375 C 41.613281 -51.984375 43.003906 -51.46875 44.203125 -50.4375 C 45.410156 -49.40625 46.015625 -47.757812 46.015625 -45.5 C 46.015625 -43.820312 45.6875 -41.660156 45.03125 -39.015625 C 44.382812 -36.378906 43.65625 -33.671875 42.84375 -30.890625 C 41.882812 -27.484375 41.007812 -24.179688 40.21875 -20.984375 C 39.425781 -17.796875 39.03125 -15.097656 39.03125 -12.890625 C 39.03125 -11.398438 39.269531 -10.222656 39.75 -9.359375 C 40.226562 -8.492188 40.992188 -8.0625 42.046875 -8.0625 C 43.484375 -8.0625 44.5625 -8.757812 45.28125 -10.15625 L 45.71875 -9.9375 C 45.664062 -7.914062 45.113281 -6.132812 44.0625 -4.59375 C 43.007812 -3.0625 41.703125 -1.863281 40.140625 -1 C 38.578125 -0.144531 36.984375 0.28125 35.359375 0.28125 C 33.910156 0.28125 32.550781 -0.0859375 31.28125 -0.828125 C 30.007812 -1.566406 28.976562 -2.726562 28.1875 -4.3125 C 27.394531 -5.90625 27 -7.972656 27 -10.515625 C 27 -12.191406 27.175781 -14.023438 27.53125 -16.015625 C 27.894531 -18.015625 28.316406 -20.046875 28.796875 -22.109375 C 26.585938 -22.242188 24.425781 -22.3125 22.3125 -22.3125 C 21.257812 -22.3125 20.253906 -22.285156 19.296875 -22.234375 C 18.335938 -22.191406 17.425781 -22.125 16.5625 -22.03125 C 16.125 -20.113281 15.75 -18.226562 15.4375 -16.375 C 15.125 -14.53125 14.96875 -12.742188 14.96875 -11.015625 C 14.96875 -10.054688 15.03125 -9.109375 15.15625 -8.171875 C 15.28125 -7.234375 15.484375 -6.332031 15.765625 -5.46875 C 14.992188 -3.59375 13.925781 -2.164062 12.5625 -1.1875 C 11.195312 -0.207031 9.816406 0.28125 8.421875 0.28125 Z M 8.421875 0.28125 "/></g></g></g><g fill="#ef9651" fill-opacity="1"><g transform="translate(56.357507, 197.629206)"><g><path d="M 28.375 0.359375 C 26.6875 0.359375 25.21875 -0.191406 23.96875 -1.296875 C 22.726562 -2.398438 22.109375 -4.203125 22.109375 -6.703125 C 22.109375 -6.941406 22.109375 -7.179688 22.109375 -7.421875 C 22.109375 -7.660156 22.128906 -7.898438 22.171875 -8.140625 C 20.734375 -5.253906 19.113281 -3.128906 17.3125 -1.765625 C 15.507812 -0.398438 13.695312 0.28125 11.875 0.28125 C 10.195312 0.28125 8.613281 -0.300781 7.125 -1.46875 C 5.632812 -2.644531 4.429688 -4.382812 3.515625 -6.6875 C 2.609375 -9 2.15625 -11.785156 2.15625 -15.046875 C 2.15625 -18.410156 2.625 -21.410156 3.5625 -24.046875 C 4.5 -26.691406 5.734375 -28.925781 7.265625 -30.75 C 8.804688 -32.570312 10.488281 -33.945312 12.3125 -34.875 C 14.132812 -35.8125 15.910156 -36.28125 17.640625 -36.28125 C 19.554688 -36.28125 21.28125 -35.691406 22.8125 -34.515625 C 24.351562 -33.347656 25.410156 -31.488281 25.984375 -28.9375 C 26.128906 -29.757812 26.238281 -30.503906 26.3125 -31.171875 C 26.382812 -31.847656 26.421875 -32.304688 26.421875 -32.546875 C 26.472656 -33.835938 27.132812 -34.796875 28.40625 -35.421875 C 29.675781 -36.046875 31.078125 -36.359375 32.609375 -36.359375 C 33.953125 -36.359375 35.222656 -36.09375 36.421875 -35.5625 C 37.628906 -35.039062 38.445312 -34.15625 38.875 -32.90625 L 39.03125 -32.46875 C 38.445312 -31.175781 37.867188 -29.617188 37.296875 -27.796875 C 36.722656 -25.972656 36.191406 -24.0625 35.703125 -22.0625 C 35.222656 -20.070312 34.835938 -18.128906 34.546875 -16.234375 C 34.265625 -14.335938 34.125 -12.671875 34.125 -11.234375 C 34.125 -9.648438 34.289062 -8.554688 34.625 -7.953125 C 34.96875 -7.359375 35.378906 -7.0625 35.859375 -7.0625 C 36.671875 -7.0625 37.414062 -7.632812 38.09375 -8.78125 L 38.65625 -8.5 C 38.65625 -6.863281 38.128906 -5.375 37.078125 -4.03125 C 36.023438 -2.6875 34.707031 -1.617188 33.125 -0.828125 C 31.539062 -0.0351562 29.957031 0.359375 28.375 0.359375 Z M 16.625 -8.78125 C 17.875 -8.78125 19.253906 -9.894531 20.765625 -12.125 C 22.285156 -14.363281 23.597656 -17.570312 24.703125 -21.75 C 24.796875 -22.175781 24.890625 -22.59375 24.984375 -23 C 25.078125 -23.40625 25.148438 -23.800781 25.203125 -24.1875 C 24.429688 -25.96875 23.625 -27.226562 22.78125 -27.96875 C 21.945312 -28.71875 21.117188 -29.09375 20.296875 -29.09375 C 19.097656 -29.09375 17.984375 -28.453125 16.953125 -27.171875 C 15.921875 -25.898438 15.082031 -24.304688 14.4375 -22.390625 C 13.789062 -20.472656 13.46875 -18.550781 13.46875 -16.625 C 13.46875 -13.988281 13.765625 -12.019531 14.359375 -10.71875 C 14.960938 -9.425781 15.71875 -8.78125 16.625 -8.78125 Z M 16.625 -8.78125 "/></g></g></g><g fill="#ef9651" fill-opacity="1"><g transform="translate(96.96549, 197.629206)"><g><path d="M 16.0625 0.5 C 12.882812 0.5 10.203125 -0.21875 8.015625 -1.65625 C 5.835938 -3.09375 4.195312 -4.972656 3.09375 -7.296875 C 1.988281 -9.628906 1.4375 -12.140625 1.4375 -14.828125 C 1.4375 -17.367188 1.925781 -19.910156 2.90625 -22.453125 C 3.894531 -25.003906 5.347656 -27.347656 7.265625 -29.484375 C 9.191406 -31.617188 11.535156 -33.320312 14.296875 -34.59375 C 17.054688 -35.863281 20.234375 -36.5 23.828125 -36.5 C 27.378906 -36.5 30.019531 -35.789062 31.75 -34.375 C 33.476562 -32.957031 34.34375 -31.410156 34.34375 -29.734375 C 34.34375 -27.960938 33.453125 -26.332031 31.671875 -24.84375 C 29.898438 -23.351562 27.3125 -22.609375 23.90625 -22.609375 C 24.09375 -23.328125 24.242188 -24.054688 24.359375 -24.796875 C 24.484375 -25.546875 24.546875 -26.253906 24.546875 -26.921875 C 24.546875 -27.929688 24.328125 -28.785156 23.890625 -29.484375 C 23.460938 -30.179688 22.695312 -30.53125 21.59375 -30.53125 C 20.59375 -30.53125 19.523438 -30.070312 18.390625 -29.15625 C 17.265625 -28.25 16.304688 -26.90625 15.515625 -25.125 C 14.722656 -23.351562 14.328125 -21.171875 14.328125 -18.578125 C 14.328125 -16.035156 14.742188 -13.972656 15.578125 -12.390625 C 16.421875 -10.804688 17.515625 -9.664062 18.859375 -8.96875 C 20.203125 -8.269531 21.617188 -7.921875 23.109375 -7.921875 C 25.078125 -7.921875 26.972656 -8.4375 28.796875 -9.46875 C 30.617188 -10.5 31.941406 -11.925781 32.765625 -13.75 L 33.484375 -13.46875 C 33.484375 -10.96875 32.914062 -8.84375 31.78125 -7.09375 C 30.65625 -5.34375 29.203125 -3.898438 27.421875 -2.765625 C 25.648438 -1.640625 23.753906 -0.8125 21.734375 -0.28125 C 19.722656 0.238281 17.832031 0.5 16.0625 0.5 Z M 16.0625 0.5 "/></g></g></g><g fill="#ef9651" fill-opacity="1"><g transform="translate(132.173477, 197.629206)"><g><path d="M 28.796875 0.359375 C 27.210938 0.359375 25.722656 -0.0078125 24.328125 -0.75 C 22.941406 -1.5 21.816406 -2.59375 20.953125 -4.03125 C 20.085938 -5.46875 19.65625 -7.195312 19.65625 -9.21875 C 19.65625 -11.28125 20.160156 -13.609375 21.171875 -16.203125 C 21.929688 -16.585938 22.835938 -17.1875 23.890625 -18 C 24.953125 -18.8125 25.890625 -19.734375 26.703125 -20.765625 C 27.523438 -21.796875 27.9375 -22.816406 27.9375 -23.828125 C 27.9375 -24.742188 27.585938 -25.460938 26.890625 -25.984375 C 26.191406 -26.515625 25.34375 -26.78125 24.34375 -26.78125 C 23.09375 -26.78125 21.914062 -26.394531 20.8125 -25.625 C 19.707031 -24.863281 18.734375 -23.867188 17.890625 -22.640625 C 17.046875 -21.421875 16.394531 -20.101562 15.9375 -18.6875 C 15.488281 -17.269531 15.265625 -15.910156 15.265625 -14.609375 C 15.265625 -13.367188 15.421875 -12.207031 15.734375 -11.125 C 16.046875 -10.039062 16.203125 -8.804688 16.203125 -7.421875 C 16.203125 -5.253906 15.625 -3.425781 14.46875 -1.9375 C 13.320312 -0.457031 11.617188 0.28125 9.359375 0.28125 C 7.296875 0.28125 5.640625 -0.410156 4.390625 -1.796875 C 3.140625 -3.191406 2.515625 -5.085938 2.515625 -7.484375 C 2.515625 -8.734375 2.671875 -10.390625 2.984375 -12.453125 C 3.296875 -14.515625 3.691406 -16.796875 4.171875 -19.296875 C 4.648438 -21.796875 5.117188 -24.375 5.578125 -27.03125 C 6.035156 -29.695312 6.421875 -32.265625 6.734375 -34.734375 C 7.046875 -37.210938 7.203125 -39.4375 7.203125 -41.40625 C 7.203125 -42.457031 7.140625 -43.425781 7.015625 -44.3125 C 6.898438 -45.195312 6.648438 -45.90625 6.265625 -46.4375 L 6.265625 -46.875 C 7.316406 -48.070312 8.46875 -48.957031 9.71875 -49.53125 C 10.96875 -50.113281 12.191406 -50.40625 13.390625 -50.40625 C 15.210938 -50.40625 16.769531 -49.753906 18.0625 -48.453125 C 19.363281 -47.160156 20.015625 -45.242188 20.015625 -42.703125 C 20.015625 -41.359375 19.832031 -39.722656 19.46875 -37.796875 C 19.113281 -35.878906 18.679688 -33.863281 18.171875 -31.75 C 17.671875 -29.632812 17.15625 -27.617188 16.625 -25.703125 C 17.6875 -27.242188 18.890625 -28.828125 20.234375 -30.453125 C 21.578125 -32.085938 23.085938 -33.46875 24.765625 -34.59375 C 26.441406 -35.71875 28.335938 -36.28125 30.453125 -36.28125 C 32.898438 -36.28125 34.816406 -35.5 36.203125 -33.9375 C 37.597656 -32.382812 38.296875 -30.53125 38.296875 -28.375 C 38.296875 -26.207031 37.515625 -23.898438 35.953125 -21.453125 C 34.398438 -19.003906 31.800781 -16.941406 28.15625 -15.265625 C 28.78125 -13.867188 29.644531 -12.617188 30.75 -11.515625 C 31.851562 -10.410156 33.0625 -9.554688 34.375 -8.953125 C 35.695312 -8.359375 36.9375 -8.0625 38.09375 -8.0625 C 38.664062 -8.0625 39.164062 -8.160156 39.59375 -8.359375 L 40.03125 -7.921875 C 38.832031 -5.140625 37.1875 -3.0625 35.09375 -1.6875 C 33.007812 -0.320312 30.910156 0.359375 28.796875 0.359375 Z M 28.796875 0.359375 "/></g></g></g><g fill="#ef9651" fill-opacity="1"><g transform="translate(172.205457, 197.629206)"><g><path d="M 14.609375 0.4375 C 11.398438 0.4375 8.75 -0.113281 6.65625 -1.21875 C 4.570312 -2.320312 3.023438 -3.738281 2.015625 -5.46875 C 1.003906 -7.195312 0.5 -8.972656 0.5 -10.796875 C 0.5 -12.578125 0.929688 -14.269531 1.796875 -15.875 C 2.660156 -17.476562 3.894531 -18.804688 5.5 -19.859375 C 7.113281 -20.921875 9.023438 -21.453125 11.234375 -21.453125 C 11.179688 -21.023438 11.15625 -20.628906 11.15625 -20.265625 C 11.15625 -19.910156 11.15625 -19.734375 11.15625 -19.734375 C 11.15625 -16.515625 11.46875 -13.976562 12.09375 -12.125 C 12.71875 -10.28125 13.507812 -8.960938 14.46875 -8.171875 C 15.425781 -7.378906 16.410156 -6.984375 17.421875 -6.984375 C 18.960938 -6.984375 20.332031 -7.59375 21.53125 -8.8125 C 22.726562 -10.039062 23.328125 -11.472656 23.328125 -13.109375 C 23.328125 -14.929688 22.546875 -16.535156 20.984375 -17.921875 C 19.421875 -19.316406 17.441406 -20.851562 15.046875 -22.53125 C 13.703125 -23.539062 12.273438 -24.679688 10.765625 -25.953125 C 9.253906 -27.222656 7.96875 -28.734375 6.90625 -30.484375 C 5.851562 -32.242188 5.328125 -34.320312 5.328125 -36.71875 C 5.328125 -39.21875 5.914062 -41.425781 7.09375 -43.34375 C 8.269531 -45.257812 9.828125 -46.878906 11.765625 -48.203125 C 13.710938 -49.523438 15.847656 -50.53125 18.171875 -51.21875 C 20.503906 -51.914062 22.820312 -52.265625 25.125 -52.265625 C 27.957031 -52.265625 30.285156 -51.804688 32.109375 -50.890625 C 33.929688 -49.984375 35.296875 -48.8125 36.203125 -47.375 C 37.117188 -45.9375 37.578125 -44.445312 37.578125 -42.90625 C 37.578125 -41.46875 37.179688 -40.085938 36.390625 -38.765625 C 35.597656 -37.453125 34.429688 -36.382812 32.890625 -35.5625 C 31.359375 -34.75 29.46875 -34.34375 27.21875 -34.34375 C 27.363281 -35.019531 27.457031 -35.632812 27.5 -36.1875 C 27.550781 -36.738281 27.578125 -37.226562 27.578125 -37.65625 C 27.578125 -40.050781 27.0625 -41.765625 26.03125 -42.796875 C 25 -43.835938 23.859375 -44.359375 22.609375 -44.359375 C 21.410156 -44.359375 20.257812 -43.910156 19.15625 -43.015625 C 18.050781 -42.128906 17.5 -40.703125 17.5 -38.734375 C 17.5 -37.054688 17.941406 -35.613281 18.828125 -34.40625 C 19.710938 -33.207031 20.863281 -32.148438 22.28125 -31.234375 C 23.695312 -30.328125 25.195312 -29.441406 26.78125 -28.578125 C 28.414062 -27.710938 29.988281 -26.765625 31.5 -25.734375 C 33.007812 -24.703125 34.269531 -23.488281 35.28125 -22.09375 C 36.289062 -20.707031 36.796875 -18.957031 36.796875 -16.84375 C 36.796875 -14.632812 36.191406 -12.484375 34.984375 -10.390625 C 33.785156 -8.304688 32.15625 -6.460938 30.09375 -4.859375 C 28.03125 -3.253906 25.664062 -1.96875 23 -1 C 20.34375 -0.0390625 17.546875 0.4375 14.609375 0.4375 Z M 14.609375 0.4375 "/></g></g></g><g fill="#ef9651" fill-opacity="1"><g transform="translate(211.301436, 197.629206)"><g><path d="M 12.390625 0.28125 C 10.847656 0.28125 9.390625 -0.0625 8.015625 -0.75 C 6.648438 -1.445312 5.546875 -2.539062 4.703125 -4.03125 C 3.867188 -5.519531 3.453125 -7.414062 3.453125 -9.71875 C 3.453125 -10.96875 3.570312 -12.597656 3.8125 -14.609375 C 4.050781 -16.628906 4.375 -18.835938 4.78125 -21.234375 C 5.195312 -23.640625 5.617188 -26.039062 6.046875 -28.4375 C 5.085938 -28.394531 4.160156 -28.300781 3.265625 -28.15625 C 2.378906 -28.007812 1.503906 -27.835938 0.640625 -27.640625 L 0.5 -28.15625 C 1.457031 -29.300781 2.460938 -30.28125 3.515625 -31.09375 C 4.578125 -31.914062 5.6875 -32.59375 6.84375 -33.125 C 7.46875 -36.289062 7.992188 -39.035156 8.421875 -41.359375 C 8.859375 -43.691406 9.078125 -45.070312 9.078125 -45.5 C 9.078125 -46.320312 9.710938 -46.992188 10.984375 -47.515625 C 12.253906 -48.046875 13.679688 -48.3125 15.265625 -48.3125 C 16.660156 -48.3125 17.96875 -48.046875 19.1875 -47.515625 C 20.414062 -46.992188 21.242188 -46.109375 21.671875 -44.859375 C 21.378906 -44.566406 20.96875 -43.492188 20.4375 -41.640625 C 19.914062 -39.796875 19.367188 -37.554688 18.796875 -34.921875 C 19.703125 -34.867188 20.632812 -34.816406 21.59375 -34.765625 C 22.5625 -34.722656 23.546875 -34.65625 24.546875 -34.5625 C 24.648438 -34.269531 24.722656 -33.957031 24.765625 -33.625 C 24.816406 -33.289062 24.84375 -32.929688 24.84375 -32.546875 C 24.84375 -31.828125 24.734375 -31.046875 24.515625 -30.203125 C 24.296875 -29.359375 24.046875 -28.601562 23.765625 -27.9375 C 22.609375 -28.03125 21.523438 -28.132812 20.515625 -28.25 C 19.515625 -28.375 18.53125 -28.460938 17.5625 -28.515625 C 17.175781 -26.453125 16.828125 -24.382812 16.515625 -22.3125 C 16.210938 -20.25 15.972656 -18.378906 15.796875 -16.703125 C 15.628906 -15.023438 15.546875 -13.707031 15.546875 -12.75 C 15.546875 -10.726562 15.914062 -9.378906 16.65625 -8.703125 C 17.40625 -8.035156 18.3125 -7.703125 19.375 -7.703125 C 20.332031 -7.703125 21.191406 -7.894531 21.953125 -8.28125 C 22.722656 -8.664062 23.273438 -9.117188 23.609375 -9.640625 L 24.34375 -9.4375 C 24.050781 -7.46875 23.28125 -5.75 22.03125 -4.28125 C 20.78125 -2.820312 19.289062 -1.695312 17.5625 -0.90625 C 15.832031 -0.113281 14.109375 0.28125 12.390625 0.28125 Z M 12.390625 0.28125 "/></g></g></g><g fill="#ef9651" fill-opacity="1"><g transform="translate(236.717411, 197.629206)"><g><path d="M 17.859375 0.5 C 14.253906 0.5 11.273438 -0.21875 8.921875 -1.65625 C 6.578125 -3.09375 4.835938 -5 3.703125 -7.375 C 2.578125 -9.75 2.015625 -12.28125 2.015625 -14.96875 C 2.015625 -17.519531 2.484375 -20.066406 3.421875 -22.609375 C 4.359375 -25.148438 5.722656 -27.460938 7.515625 -29.546875 C 9.316406 -31.640625 11.515625 -33.320312 14.109375 -34.59375 C 16.703125 -35.863281 19.679688 -36.5 23.046875 -36.5 C 26.640625 -36.5 29.597656 -35.765625 31.921875 -34.296875 C 34.253906 -32.835938 35.984375 -30.90625 37.109375 -28.5 C 38.242188 -26.101562 38.8125 -23.539062 38.8125 -20.8125 C 38.8125 -18.3125 38.351562 -15.800781 37.4375 -13.28125 C 36.53125 -10.757812 35.175781 -8.453125 33.375 -6.359375 C 31.570312 -4.273438 29.375 -2.609375 26.78125 -1.359375 C 24.1875 -0.117188 21.210938 0.5 17.859375 0.5 Z M 19.796875 -5.609375 C 21.097656 -5.609375 22.179688 -6.28125 23.046875 -7.625 C 23.910156 -8.96875 24.554688 -10.679688 24.984375 -12.765625 C 25.410156 -14.859375 25.625 -16.988281 25.625 -19.15625 C 25.625 -21.070312 25.441406 -22.878906 25.078125 -24.578125 C 24.722656 -26.285156 24.1875 -27.679688 23.46875 -28.765625 C 22.75 -29.847656 21.8125 -30.390625 20.65625 -30.390625 C 19.414062 -30.390625 18.347656 -29.71875 17.453125 -28.375 C 16.566406 -27.03125 15.90625 -25.320312 15.46875 -23.25 C 15.039062 -21.1875 14.828125 -19.050781 14.828125 -16.84375 C 14.828125 -14.925781 15.003906 -13.113281 15.359375 -11.40625 C 15.722656 -9.707031 16.265625 -8.316406 16.984375 -7.234375 C 17.710938 -6.148438 18.648438 -5.609375 19.796875 -5.609375 Z M 19.796875 -5.609375 "/></g></g></g><g fill="#ef9651" fill-opacity="1"><g transform="translate(277.541391, 197.629206)"><g><path d="M 16.0625 0.5 C 12.882812 0.5 10.203125 -0.21875 8.015625 -1.65625 C 5.835938 -3.09375 4.195312 -4.972656 3.09375 -7.296875 C 1.988281 -9.628906 1.4375 -12.140625 1.4375 -14.828125 C 1.4375 -17.367188 1.925781 -19.910156 2.90625 -22.453125 C 3.894531 -25.003906 5.347656 -27.347656 7.265625 -29.484375 C 9.191406 -31.617188 11.535156 -33.320312 14.296875 -34.59375 C 17.054688 -35.863281 20.234375 -36.5 23.828125 -36.5 C 27.378906 -36.5 30.019531 -35.789062 31.75 -34.375 C 33.476562 -32.957031 34.34375 -31.410156 34.34375 -29.734375 C 34.34375 -27.960938 33.453125 -26.332031 31.671875 -24.84375 C 29.898438 -23.351562 27.3125 -22.609375 23.90625 -22.609375 C 24.09375 -23.328125 24.242188 -24.054688 24.359375 -24.796875 C 24.484375 -25.546875 24.546875 -26.253906 24.546875 -26.921875 C 24.546875 -27.929688 24.328125 -28.785156 23.890625 -29.484375 C 23.460938 -30.179688 22.695312 -30.53125 21.59375 -30.53125 C 20.59375 -30.53125 19.523438 -30.070312 18.390625 -29.15625 C 17.265625 -28.25 16.304688 -26.90625 15.515625 -25.125 C 14.722656 -23.351562 14.328125 -21.171875 14.328125 -18.578125 C 14.328125 -16.035156 14.742188 -13.972656 15.578125 -12.390625 C 16.421875 -10.804688 17.515625 -9.664062 18.859375 -8.96875 C 20.203125 -8.269531 21.617188 -7.921875 23.109375 -7.921875 C 25.078125 -7.921875 26.972656 -8.4375 28.796875 -9.46875 C 30.617188 -10.5 31.941406 -11.925781 32.765625 -13.75 L 33.484375 -13.46875 C 33.484375 -10.96875 32.914062 -8.84375 31.78125 -7.09375 C 30.65625 -5.34375 29.203125 -3.898438 27.421875 -2.765625 C 25.648438 -1.640625 23.753906 -0.8125 21.734375 -0.28125 C 19.722656 0.238281 17.832031 0.5 16.0625 0.5 Z M 16.0625 0.5 "/></g></g><g transform="translate(312.749388, 197.629206)"><g><path d="M 28.796875 0.359375 C 27.210938 0.359375 25.722656 -0.0078125 24.328125 -0.75 C 22.941406 -1.5 21.816406 -2.59375 20.953125 -4.03125 C 20.085938 -5.46875 19.65625 -7.195312 19.65625 -9.21875 C 19.65625 -11.28125 20.160156 -13.609375 21.171875 -16.203125 C 21.929688 -16.585938 22.835938 -17.1875 23.890625 -18 C 24.953125 -18.8125 25.890625 -19.734375 26.703125 -20.765625 C 27.523438 -21.796875 27.9375 -22.816406 27.9375 -23.828125 C 27.9375 -24.742188 27.585938 -25.460938 26.890625 -25.984375 C 26.191406 -26.515625 25.34375 -26.78125 24.34375 -26.78125 C 23.09375 -26.78125 21.914062 -26.394531 20.8125 -25.625 C 19.707031 -24.863281 18.734375 -23.867188 17.890625 -22.640625 C 17.046875 -21.421875 16.394531 -20.101562 15.9375 -18.6875 C 15.488281 -17.269531 15.265625 -15.910156 15.265625 -14.609375 C 15.265625 -13.367188 15.421875 -12.207031 15.734375 -11.125 C 16.046875 -10.039062 16.203125 -8.804688 16.203125 -7.421875 C 16.203125 -5.253906 15.625 -3.425781 14.46875 -1.9375 C 13.320312 -0.457031 11.617188 0.28125 9.359375 0.28125 C 7.296875 0.28125 5.640625 -0.410156 4.390625 -1.796875 C 3.140625 -3.191406 2.515625 -5.085938 2.515625 -7.484375 C 2.515625 -8.734375 2.671875 -10.390625 2.984375 -12.453125 C 3.296875 -14.515625 3.691406 -16.796875 4.171875 -19.296875 C 4.648438 -21.796875 5.117188 -24.375 5.578125 -27.03125 C 6.035156 -29.695312 6.421875 -32.265625 6.734375 -34.734375 C 7.046875 -37.210938 7.203125 -39.4375 7.203125 -41.40625 C 7.203125 -42.457031 7.140625 -43.425781 7.015625 -44.3125 C 6.898438 -45.195312 6.648438 -45.90625 6.265625 -46.4375 L 6.265625 -46.875 C 7.316406 -48.070312 8.46875 -48.957031 9.71875 -49.53125 C 10.96875 -50.113281 12.191406 -50.40625 13.390625 -50.40625 C 15.210938 -50.40625 16.769531 -49.753906 18.0625 -48.453125 C 19.363281 -47.160156 20.015625 -45.242188 20.015625 -42.703125 C 20.015625 -41.359375 19.832031 -39.722656 19.46875 -37.796875 C 19.113281 -35.878906 18.679688 -33.863281 18.171875 -31.75 C 17.671875 -29.632812 17.15625 -27.617188 16.625 -25.703125 C 17.6875 -27.242188 18.890625 -28.828125 20.234375 -30.453125 C 21.578125 -32.085938 23.085938 -33.46875 24.765625 -34.59375 C 26.441406 -35.71875 28.335938 -36.28125 30.453125 -36.28125 C 32.898438 -36.28125 34.816406 -35.5 36.203125 -33.9375 C 37.597656 -32.382812 38.296875 -30.53125 38.296875 -28.375 C 38.296875 -26.207031 37.515625 -23.898438 35.953125 -21.453125 C 34.398438 -19.003906 31.800781 -16.941406 28.15625 -15.265625 C 28.78125 -13.867188 29.644531 -12.617188 30.75 -11.515625 C 31.851562 -10.410156 33.0625 -9.554688 34.375 -8.953125 C 35.695312 -8.359375 36.9375 -8.0625 38.09375 -8.0625 C 38.664062 -8.0625 39.164062 -8.160156 39.59375 -8.359375 L 40.03125 -7.921875 C 38.832031 -5.140625 37.1875 -3.0625 35.09375 -1.6875 C 33.007812 -0.320312 30.910156 0.359375 28.796875 0.359375 Z M 28.796875 0.359375 "/></g></g></g><g fill="#ef0f16" fill-opacity="1"><g transform="translate(9.269535, 192.732117)"><g><path d="M 8.421875 0.28125 C 6.691406 0.28125 5.15625 -0.472656 3.8125 -1.984375 C 2.46875 -3.492188 1.796875 -5.859375 1.796875 -9.078125 C 1.796875 -11.328125 2.09375 -13.578125 2.6875 -15.828125 C 3.289062 -18.085938 3.90625 -20.15625 4.53125 -22.03125 C 5.488281 -25.101562 6.328125 -27.9375 7.046875 -30.53125 C 7.773438 -33.125 8.140625 -35.59375 8.140625 -37.9375 C 8.140625 -39.570312 7.957031 -40.703125 7.59375 -41.328125 C 7.238281 -41.953125 6.769531 -42.265625 6.1875 -42.265625 C 5.5625 -42.265625 4.878906 -41.925781 4.140625 -41.25 C 3.398438 -40.582031 2.664062 -39.550781 1.9375 -38.15625 L 1.4375 -38.296875 C 1.53125 -41.085938 2.128906 -43.488281 3.234375 -45.5 C 4.335938 -47.519531 5.726562 -49.082031 7.40625 -50.1875 C 9.09375 -51.289062 10.820312 -51.84375 12.59375 -51.84375 C 14.613281 -51.84375 16.34375 -51.035156 17.78125 -49.421875 C 19.21875 -47.816406 19.9375 -45.046875 19.9375 -41.109375 C 19.9375 -39.046875 19.734375 -36.882812 19.328125 -34.625 C 18.921875 -32.375 18.453125 -30.117188 17.921875 -27.859375 C 19.554688 -28.535156 21.285156 -29.015625 23.109375 -29.296875 C 24.929688 -29.585938 26.875 -29.734375 28.9375 -29.734375 L 30.8125 -29.734375 C 31.4375 -32.140625 31.976562 -34.503906 32.4375 -36.828125 C 32.894531 -39.148438 33.125 -41.320312 33.125 -43.34375 C 33.125 -44.0625 33.085938 -44.734375 33.015625 -45.359375 C 32.941406 -45.984375 32.859375 -46.582031 32.765625 -47.15625 L 32.765625 -47.734375 C 33.484375 -49.035156 34.523438 -50.066406 35.890625 -50.828125 C 37.253906 -51.597656 38.632812 -51.984375 40.03125 -51.984375 C 41.613281 -51.984375 43.003906 -51.46875 44.203125 -50.4375 C 45.410156 -49.40625 46.015625 -47.757812 46.015625 -45.5 C 46.015625 -43.820312 45.6875 -41.660156 45.03125 -39.015625 C 44.382812 -36.378906 43.65625 -33.671875 42.84375 -30.890625 C 41.882812 -27.484375 41.007812 -24.179688 40.21875 -20.984375 C 39.425781 -17.796875 39.03125 -15.097656 39.03125 -12.890625 C 39.03125 -11.398438 39.269531 -10.222656 39.75 -9.359375 C 40.226562 -8.492188 40.992188 -8.0625 42.046875 -8.0625 C 43.484375 -8.0625 44.5625 -8.757812 45.28125 -10.15625 L 45.71875 -9.9375 C 45.664062 -7.914062 45.113281 -6.132812 44.0625 -4.59375 C 43.007812 -3.0625 41.703125 -1.863281 40.140625 -1 C 38.578125 -0.144531 36.984375 0.28125 35.359375 0.28125 C 33.910156 0.28125 32.550781 -0.0859375 31.28125 -0.828125 C 30.007812 -1.566406 28.976562 -2.726562 28.1875 -4.3125 C 27.394531 -5.90625 27 -7.972656 27 -10.515625 C 27 -12.191406 27.175781 -14.023438 27.53125 -16.015625 C 27.894531 -18.015625 28.316406 -20.046875 28.796875 -22.109375 C 26.585938 -22.242188 24.425781 -22.3125 22.3125 -22.3125 C 21.257812 -22.3125 20.253906 -22.285156 19.296875 -22.234375 C 18.335938 -22.191406 17.425781 -22.125 16.5625 -22.03125 C 16.125 -20.113281 15.75 -18.226562 15.4375 -16.375 C 15.125 -14.53125 14.96875 -12.742188 14.96875 -11.015625 C 14.96875 -10.054688 15.03125 -9.109375 15.15625 -8.171875 C 15.28125 -7.234375 15.484375 -6.332031 15.765625 -5.46875 C 14.992188 -3.59375 13.925781 -2.164062 12.5625 -1.1875 C 11.195312 -0.207031 9.816406 0.28125 8.421875 0.28125 Z M 8.421875 0.28125 "/></g></g></g><g fill="#ef0f16" fill-opacity="1"><g transform="translate(56.357507, 192.732117)"><g><path d="M 28.375 0.359375 C 26.6875 0.359375 25.21875 -0.191406 23.96875 -1.296875 C 22.726562 -2.398438 22.109375 -4.203125 22.109375 -6.703125 C 22.109375 -6.941406 22.109375 -7.179688 22.109375 -7.421875 C 22.109375 -7.660156 22.128906 -7.898438 22.171875 -8.140625 C 20.734375 -5.253906 19.113281 -3.128906 17.3125 -1.765625 C 15.507812 -0.398438 13.695312 0.28125 11.875 0.28125 C 10.195312 0.28125 8.613281 -0.300781 7.125 -1.46875 C 5.632812 -2.644531 4.429688 -4.382812 3.515625 -6.6875 C 2.609375 -9 2.15625 -11.785156 2.15625 -15.046875 C 2.15625 -18.410156 2.625 -21.410156 3.5625 -24.046875 C 4.5 -26.691406 5.734375 -28.925781 7.265625 -30.75 C 8.804688 -32.570312 10.488281 -33.945312 12.3125 -34.875 C 14.132812 -35.8125 15.910156 -36.28125 17.640625 -36.28125 C 19.554688 -36.28125 21.28125 -35.691406 22.8125 -34.515625 C 24.351562 -33.347656 25.410156 -31.488281 25.984375 -28.9375 C 26.128906 -29.757812 26.238281 -30.503906 26.3125 -31.171875 C 26.382812 -31.847656 26.421875 -32.304688 26.421875 -32.546875 C 26.472656 -33.835938 27.132812 -34.796875 28.40625 -35.421875 C 29.675781 -36.046875 31.078125 -36.359375 32.609375 -36.359375 C 33.953125 -36.359375 35.222656 -36.09375 36.421875 -35.5625 C 37.628906 -35.039062 38.445312 -34.15625 38.875 -32.90625 L 39.03125 -32.46875 C 38.445312 -31.175781 37.867188 -29.617188 37.296875 -27.796875 C 36.722656 -25.972656 36.191406 -24.0625 35.703125 -22.0625 C 35.222656 -20.070312 34.835938 -18.128906 34.546875 -16.234375 C 34.265625 -14.335938 34.125 -12.671875 34.125 -11.234375 C 34.125 -9.648438 34.289062 -8.554688 34.625 -7.953125 C 34.96875 -7.359375 35.378906 -7.0625 35.859375 -7.0625 C 36.671875 -7.0625 37.414062 -7.632812 38.09375 -8.78125 L 38.65625 -8.5 C 38.65625 -6.863281 38.128906 -5.375 37.078125 -4.03125 C 36.023438 -2.6875 34.707031 -1.617188 33.125 -0.828125 C 31.539062 -0.0351562 29.957031 0.359375 28.375 0.359375 Z M 16.625 -8.78125 C 17.875 -8.78125 19.253906 -9.894531 20.765625 -12.125 C 22.285156 -14.363281 23.597656 -17.570312 24.703125 -21.75 C 24.796875 -22.175781 24.890625 -22.59375 24.984375 -23 C 25.078125 -23.40625 25.148438 -23.800781 25.203125 -24.1875 C 24.429688 -25.96875 23.625 -27.226562 22.78125 -27.96875 C 21.945312 -28.71875 21.117188 -29.09375 20.296875 -29.09375 C 19.097656 -29.09375 17.984375 -28.453125 16.953125 -27.171875 C 15.921875 -25.898438 15.082031 -24.304688 14.4375 -22.390625 C 13.789062 -20.472656 13.46875 -18.550781 13.46875 -16.625 C 13.46875 -13.988281 13.765625 -12.019531 14.359375 -10.71875 C 14.960938 -9.425781 15.71875 -8.78125 16.625 -8.78125 Z M 16.625 -8.78125 "/></g></g></g><g fill="#ef0f16" fill-opacity="1"><g transform="translate(96.96549, 192.732117)"><g><path d="M 16.0625 0.5 C 12.882812 0.5 10.203125 -0.21875 8.015625 -1.65625 C 5.835938 -3.09375 4.195312 -4.972656 3.09375 -7.296875 C 1.988281 -9.628906 1.4375 -12.140625 1.4375 -14.828125 C 1.4375 -17.367188 1.925781 -19.910156 2.90625 -22.453125 C 3.894531 -25.003906 5.347656 -27.347656 7.265625 -29.484375 C 9.191406 -31.617188 11.535156 -33.320312 14.296875 -34.59375 C 17.054688 -35.863281 20.234375 -36.5 23.828125 -36.5 C 27.378906 -36.5 30.019531 -35.789062 31.75 -34.375 C 33.476562 -32.957031 34.34375 -31.410156 34.34375 -29.734375 C 34.34375 -27.960938 33.453125 -26.332031 31.671875 -24.84375 C 29.898438 -23.351562 27.3125 -22.609375 23.90625 -22.609375 C 24.09375 -23.328125 24.242188 -24.054688 24.359375 -24.796875 C 24.484375 -25.546875 24.546875 -26.253906 24.546875 -26.921875 C 24.546875 -27.929688 24.328125 -28.785156 23.890625 -29.484375 C 23.460938 -30.179688 22.695312 -30.53125 21.59375 -30.53125 C 20.59375 -30.53125 19.523438 -30.070312 18.390625 -29.15625 C 17.265625 -28.25 16.304688 -26.90625 15.515625 -25.125 C 14.722656 -23.351562 14.328125 -21.171875 14.328125 -18.578125 C 14.328125 -16.035156 14.742188 -13.972656 15.578125 -12.390625 C 16.421875 -10.804688 17.515625 -9.664062 18.859375 -8.96875 C 20.203125 -8.269531 21.617188 -7.921875 23.109375 -7.921875 C 25.078125 -7.921875 26.972656 -8.4375 28.796875 -9.46875 C 30.617188 -10.5 31.941406 -11.925781 32.765625 -13.75 L 33.484375 -13.46875 C 33.484375 -10.96875 32.914062 -8.84375 31.78125 -7.09375 C 30.65625 -5.34375 29.203125 -3.898438 27.421875 -2.765625 C 25.648438 -1.640625 23.753906 -0.8125 21.734375 -0.28125 C 19.722656 0.238281 17.832031 0.5 16.0625 0.5 Z M 16.0625 0.5 "/></g></g></g><g fill="#ef0f16" fill-opacity="1"><g transform="translate(132.173477, 192.732117)"><g><path d="M 28.796875 0.359375 C 27.210938 0.359375 25.722656 -0.0078125 24.328125 -0.75 C 22.941406 -1.5 21.816406 -2.59375 20.953125 -4.03125 C 20.085938 -5.46875 19.65625 -7.195312 19.65625 -9.21875 C 19.65625 -11.28125 20.160156 -13.609375 21.171875 -16.203125 C 21.929688 -16.585938 22.835938 -17.1875 23.890625 -18 C 24.953125 -18.8125 25.890625 -19.734375 26.703125 -20.765625 C 27.523438 -21.796875 27.9375 -22.816406 27.9375 -23.828125 C 27.9375 -24.742188 27.585938 -25.460938 26.890625 -25.984375 C 26.191406 -26.515625 25.34375 -26.78125 24.34375 -26.78125 C 23.09375 -26.78125 21.914062 -26.394531 20.8125 -25.625 C 19.707031 -24.863281 18.734375 -23.867188 17.890625 -22.640625 C 17.046875 -21.421875 16.394531 -20.101562 15.9375 -18.6875 C 15.488281 -17.269531 15.265625 -15.910156 15.265625 -14.609375 C 15.265625 -13.367188 15.421875 -12.207031 15.734375 -11.125 C 16.046875 -10.039062 16.203125 -8.804688 16.203125 -7.421875 C 16.203125 -5.253906 15.625 -3.425781 14.46875 -1.9375 C 13.320312 -0.457031 11.617188 0.28125 9.359375 0.28125 C 7.296875 0.28125 5.640625 -0.410156 4.390625 -1.796875 C 3.140625 -3.191406 2.515625 -5.085938 2.515625 -7.484375 C 2.515625 -8.734375 2.671875 -10.390625 2.984375 -12.453125 C 3.296875 -14.515625 3.691406 -16.796875 4.171875 -19.296875 C 4.648438 -21.796875 5.117188 -24.375 5.578125 -27.03125 C 6.035156 -29.695312 6.421875 -32.265625 6.734375 -34.734375 C 7.046875 -37.210938 7.203125 -39.4375 7.203125 -41.40625 C 7.203125 -42.457031 7.140625 -43.425781 7.015625 -44.3125 C 6.898438 -45.195312 6.648438 -45.90625 6.265625 -46.4375 L 6.265625 -46.875 C 7.316406 -48.070312 8.46875 -48.957031 9.71875 -49.53125 C 10.96875 -50.113281 12.191406 -50.40625 13.390625 -50.40625 C 15.210938 -50.40625 16.769531 -49.753906 18.0625 -48.453125 C 19.363281 -47.160156 20.015625 -45.242188 20.015625 -42.703125 C 20.015625 -41.359375 19.832031 -39.722656 19.46875 -37.796875 C 19.113281 -35.878906 18.679688 -33.863281 18.171875 -31.75 C 17.671875 -29.632812 17.15625 -27.617188 16.625 -25.703125 C 17.6875 -27.242188 18.890625 -28.828125 20.234375 -30.453125 C 21.578125 -32.085938 23.085938 -33.46875 24.765625 -34.59375 C 26.441406 -35.71875 28.335938 -36.28125 30.453125 -36.28125 C 32.898438 -36.28125 34.816406 -35.5 36.203125 -33.9375 C 37.597656 -32.382812 38.296875 -30.53125 38.296875 -28.375 C 38.296875 -26.207031 37.515625 -23.898438 35.953125 -21.453125 C 34.398438 -19.003906 31.800781 -16.941406 28.15625 -15.265625 C 28.78125 -13.867188 29.644531 -12.617188 30.75 -11.515625 C 31.851562 -10.410156 33.0625 -9.554688 34.375 -8.953125 C 35.695312 -8.359375 36.9375 -8.0625 38.09375 -8.0625 C 38.664062 -8.0625 39.164062 -8.160156 39.59375 -8.359375 L 40.03125 -7.921875 C 38.832031 -5.140625 37.1875 -3.0625 35.09375 -1.6875 C 33.007812 -0.320312 30.910156 0.359375 28.796875 0.359375 Z M 28.796875 0.359375 "/></g></g></g><g fill="#ef0f16" fill-opacity="1"><g transform="translate(172.205457, 192.732117)"><g><path d="M 14.609375 0.4375 C 11.398438 0.4375 8.75 -0.113281 6.65625 -1.21875 C 4.570312 -2.320312 3.023438 -3.738281 2.015625 -5.46875 C 1.003906 -7.195312 0.5 -8.972656 0.5 -10.796875 C 0.5 -12.578125 0.929688 -14.269531 1.796875 -15.875 C 2.660156 -17.476562 3.894531 -18.804688 5.5 -19.859375 C 7.113281 -20.921875 9.023438 -21.453125 11.234375 -21.453125 C 11.179688 -21.023438 11.15625 -20.628906 11.15625 -20.265625 C 11.15625 -19.910156 11.15625 -19.734375 11.15625 -19.734375 C 11.15625 -16.515625 11.46875 -13.976562 12.09375 -12.125 C 12.71875 -10.28125 13.507812 -8.960938 14.46875 -8.171875 C 15.425781 -7.378906 16.410156 -6.984375 17.421875 -6.984375 C 18.960938 -6.984375 20.332031 -7.59375 21.53125 -8.8125 C 22.726562 -10.039062 23.328125 -11.472656 23.328125 -13.109375 C 23.328125 -14.929688 22.546875 -16.535156 20.984375 -17.921875 C 19.421875 -19.316406 17.441406 -20.851562 15.046875 -22.53125 C 13.703125 -23.539062 12.273438 -24.679688 10.765625 -25.953125 C 9.253906 -27.222656 7.96875 -28.734375 6.90625 -30.484375 C 5.851562 -32.242188 5.328125 -34.320312 5.328125 -36.71875 C 5.328125 -39.21875 5.914062 -41.425781 7.09375 -43.34375 C 8.269531 -45.257812 9.828125 -46.878906 11.765625 -48.203125 C 13.710938 -49.523438 15.847656 -50.53125 18.171875 -51.21875 C 20.503906 -51.914062 22.820312 -52.265625 25.125 -52.265625 C 27.957031 -52.265625 30.285156 -51.804688 32.109375 -50.890625 C 33.929688 -49.984375 35.296875 -48.8125 36.203125 -47.375 C 37.117188 -45.9375 37.578125 -44.445312 37.578125 -42.90625 C 37.578125 -41.46875 37.179688 -40.085938 36.390625 -38.765625 C 35.597656 -37.453125 34.429688 -36.382812 32.890625 -35.5625 C 31.359375 -34.75 29.46875 -34.34375 27.21875 -34.34375 C 27.363281 -35.019531 27.457031 -35.632812 27.5 -36.1875 C 27.550781 -36.738281 27.578125 -37.226562 27.578125 -37.65625 C 27.578125 -40.050781 27.0625 -41.765625 26.03125 -42.796875 C 25 -43.835938 23.859375 -44.359375 22.609375 -44.359375 C 21.410156 -44.359375 20.257812 -43.910156 19.15625 -43.015625 C 18.050781 -42.128906 17.5 -40.703125 17.5 -38.734375 C 17.5 -37.054688 17.941406 -35.613281 18.828125 -34.40625 C 19.710938 -33.207031 20.863281 -32.148438 22.28125 -31.234375 C 23.695312 -30.328125 25.195312 -29.441406 26.78125 -28.578125 C 28.414062 -27.710938 29.988281 -26.765625 31.5 -25.734375 C 33.007812 -24.703125 34.269531 -23.488281 35.28125 -22.09375 C 36.289062 -20.707031 36.796875 -18.957031 36.796875 -16.84375 C 36.796875 -14.632812 36.191406 -12.484375 34.984375 -10.390625 C 33.785156 -8.304688 32.15625 -6.460938 30.09375 -4.859375 C 28.03125 -3.253906 25.664062 -1.96875 23 -1 C 20.34375 -0.0390625 17.546875 0.4375 14.609375 0.4375 Z M 14.609375 0.4375 "/></g></g></g><g fill="#ef0f16" fill-opacity="1"><g transform="translate(211.301436, 192.732117)"><g><path d="M 12.390625 0.28125 C 10.847656 0.28125 9.390625 -0.0625 8.015625 -0.75 C 6.648438 -1.445312 5.546875 -2.539062 4.703125 -4.03125 C 3.867188 -5.519531 3.453125 -7.414062 3.453125 -9.71875 C 3.453125 -10.96875 3.570312 -12.597656 3.8125 -14.609375 C 4.050781 -16.628906 4.375 -18.835938 4.78125 -21.234375 C 5.195312 -23.640625 5.617188 -26.039062 6.046875 -28.4375 C 5.085938 -28.394531 4.160156 -28.300781 3.265625 -28.15625 C 2.378906 -28.007812 1.503906 -27.835938 0.640625 -27.640625 L 0.5 -28.15625 C 1.457031 -29.300781 2.460938 -30.28125 3.515625 -31.09375 C 4.578125 -31.914062 5.6875 -32.59375 6.84375 -33.125 C 7.46875 -36.289062 7.992188 -39.035156 8.421875 -41.359375 C 8.859375 -43.691406 9.078125 -45.070312 9.078125 -45.5 C 9.078125 -46.320312 9.710938 -46.992188 10.984375 -47.515625 C 12.253906 -48.046875 13.679688 -48.3125 15.265625 -48.3125 C 16.660156 -48.3125 17.96875 -48.046875 19.1875 -47.515625 C 20.414062 -46.992188 21.242188 -46.109375 21.671875 -44.859375 C 21.378906 -44.566406 20.96875 -43.492188 20.4375 -41.640625 C 19.914062 -39.796875 19.367188 -37.554688 18.796875 -34.921875 C 19.703125 -34.867188 20.632812 -34.816406 21.59375 -34.765625 C 22.5625 -34.722656 23.546875 -34.65625 24.546875 -34.5625 C 24.648438 -34.269531 24.722656 -33.957031 24.765625 -33.625 C 24.816406 -33.289062 24.84375 -32.929688 24.84375 -32.546875 C 24.84375 -31.828125 24.734375 -31.046875 24.515625 -30.203125 C 24.296875 -29.359375 24.046875 -28.601562 23.765625 -27.9375 C 22.609375 -28.03125 21.523438 -28.132812 20.515625 -28.25 C 19.515625 -28.375 18.53125 -28.460938 17.5625 -28.515625 C 17.175781 -26.453125 16.828125 -24.382812 16.515625 -22.3125 C 16.210938 -20.25 15.972656 -18.378906 15.796875 -16.703125 C 15.628906 -15.023438 15.546875 -13.707031 15.546875 -12.75 C 15.546875 -10.726562 15.914062 -9.378906 16.65625 -8.703125 C 17.40625 -8.035156 18.3125 -7.703125 19.375 -7.703125 C 20.332031 -7.703125 21.191406 -7.894531 21.953125 -8.28125 C 22.722656 -8.664062 23.273438 -9.117188 23.609375 -9.640625 L 24.34375 -9.4375 C 24.050781 -7.46875 23.28125 -5.75 22.03125 -4.28125 C 20.78125 -2.820312 19.289062 -1.695312 17.5625 -0.90625 C 15.832031 -0.113281 14.109375 0.28125 12.390625 0.28125 Z M 12.390625 0.28125 "/></g></g></g><g fill="#ef0f16" fill-opacity="1"><g transform="translate(236.717411, 192.732117)"><g><path d="M 17.859375 0.5 C 14.253906 0.5 11.273438 -0.21875 8.921875 -1.65625 C 6.578125 -3.09375 4.835938 -5 3.703125 -7.375 C 2.578125 -9.75 2.015625 -12.28125 2.015625 -14.96875 C 2.015625 -17.519531 2.484375 -20.066406 3.421875 -22.609375 C 4.359375 -25.148438 5.722656 -27.460938 7.515625 -29.546875 C 9.316406 -31.640625 11.515625 -33.320312 14.109375 -34.59375 C 16.703125 -35.863281 19.679688 -36.5 23.046875 -36.5 C 26.640625 -36.5 29.597656 -35.765625 31.921875 -34.296875 C 34.253906 -32.835938 35.984375 -30.90625 37.109375 -28.5 C 38.242188 -26.101562 38.8125 -23.539062 38.8125 -20.8125 C 38.8125 -18.3125 38.351562 -15.800781 37.4375 -13.28125 C 36.53125 -10.757812 35.175781 -8.453125 33.375 -6.359375 C 31.570312 -4.273438 29.375 -2.609375 26.78125 -1.359375 C 24.1875 -0.117188 21.210938 0.5 17.859375 0.5 Z M 19.796875 -5.609375 C 21.097656 -5.609375 22.179688 -6.28125 23.046875 -7.625 C 23.910156 -8.96875 24.554688 -10.679688 24.984375 -12.765625 C 25.410156 -14.859375 25.625 -16.988281 25.625 -19.15625 C 25.625 -21.070312 25.441406 -22.878906 25.078125 -24.578125 C 24.722656 -26.285156 24.1875 -27.679688 23.46875 -28.765625 C 22.75 -29.847656 21.8125 -30.390625 20.65625 -30.390625 C 19.414062 -30.390625 18.347656 -29.71875 17.453125 -28.375 C 16.566406 -27.03125 15.90625 -25.320312 15.46875 -23.25 C 15.039062 -21.1875 14.828125 -19.050781 14.828125 -16.84375 C 14.828125 -14.925781 15.003906 -13.113281 15.359375 -11.40625 C 15.722656 -9.707031 16.265625 -8.316406 16.984375 -7.234375 C 17.710938 -6.148438 18.648438 -5.609375 19.796875 -5.609375 Z M 19.796875 -5.609375 "/></g></g></g><g fill="#ef0f16" fill-opacity="1"><g transform="translate(277.541391, 192.732117)"><g><path d="M 16.0625 0.5 C 12.882812 0.5 10.203125 -0.21875 8.015625 -1.65625 C 5.835938 -3.09375 4.195312 -4.972656 3.09375 -7.296875 C 1.988281 -9.628906 1.4375 -12.140625 1.4375 -14.828125 C 1.4375 -17.367188 1.925781 -19.910156 2.90625 -22.453125 C 3.894531 -25.003906 5.347656 -27.347656 7.265625 -29.484375 C 9.191406 -31.617188 11.535156 -33.320312 14.296875 -34.59375 C 17.054688 -35.863281 20.234375 -36.5 23.828125 -36.5 C 27.378906 -36.5 30.019531 -35.789062 31.75 -34.375 C 33.476562 -32.957031 34.34375 -31.410156 34.34375 -29.734375 C 34.34375 -27.960938 33.453125 -26.332031 31.671875 -24.84375 C 29.898438 -23.351562 27.3125 -22.609375 23.90625 -22.609375 C 24.09375 -23.328125 24.242188 -24.054688 24.359375 -24.796875 C 24.484375 -25.546875 24.546875 -26.253906 24.546875 -26.921875 C 24.546875 -27.929688 24.328125 -28.785156 23.890625 -29.484375 C 23.460938 -30.179688 22.695312 -30.53125 21.59375 -30.53125 C 20.59375 -30.53125 19.523438 -30.070312 18.390625 -29.15625 C 17.265625 -28.25 16.304688 -26.90625 15.515625 -25.125 C 14.722656 -23.351562 14.328125 -21.171875 14.328125 -18.578125 C 14.328125 -16.035156 14.742188 -13.972656 15.578125 -12.390625 C 16.421875 -10.804688 17.515625 -9.664062 18.859375 -8.96875 C 20.203125 -8.269531 21.617188 -7.921875 23.109375 -7.921875 C 25.078125 -7.921875 26.972656 -8.4375 28.796875 -9.46875 C 30.617188 -10.5 31.941406 -11.925781 32.765625 -13.75 L 33.484375 -13.46875 C 33.484375 -10.96875 32.914062 -8.84375 31.78125 -7.09375 C 30.65625 -5.34375 29.203125 -3.898438 27.421875 -2.765625 C 25.648438 -1.640625 23.753906 -0.8125 21.734375 -0.28125 C 19.722656 0.238281 17.832031 0.5 16.0625 0.5 Z M 16.0625 0.5 "/></g></g><g transform="translate(312.749388, 192.732117)"><g><path d="M 28.796875 0.359375 C 27.210938 0.359375 25.722656 -0.0078125 24.328125 -0.75 C 22.941406 -1.5 21.816406 -2.59375 20.953125 -4.03125 C 20.085938 -5.46875 19.65625 -7.195312 19.65625 -9.21875 C 19.65625 -11.28125 20.160156 -13.609375 21.171875 -16.203125 C 21.929688 -16.585938 22.835938 -17.1875 23.890625 -18 C 24.953125 -18.8125 25.890625 -19.734375 26.703125 -20.765625 C 27.523438 -21.796875 27.9375 -22.816406 27.9375 -23.828125 C 27.9375 -24.742188 27.585938 -25.460938 26.890625 -25.984375 C 26.191406 -26.515625 25.34375 -26.78125 24.34375 -26.78125 C 23.09375 -26.78125 21.914062 -26.394531 20.8125 -25.625 C 19.707031 -24.863281 18.734375 -23.867188 17.890625 -22.640625 C 17.046875 -21.421875 16.394531 -20.101562 15.9375 -18.6875 C 15.488281 -17.269531 15.265625 -15.910156 15.265625 -14.609375 C 15.265625 -13.367188 15.421875 -12.207031 15.734375 -11.125 C 16.046875 -10.039062 16.203125 -8.804688 16.203125 -7.421875 C 16.203125 -5.253906 15.625 -3.425781 14.46875 -1.9375 C 13.320312 -0.457031 11.617188 0.28125 9.359375 0.28125 C 7.296875 0.28125 5.640625 -0.410156 4.390625 -1.796875 C 3.140625 -3.191406 2.515625 -5.085938 2.515625 -7.484375 C 2.515625 -8.734375 2.671875 -10.390625 2.984375 -12.453125 C 3.296875 -14.515625 3.691406 -16.796875 4.171875 -19.296875 C 4.648438 -21.796875 5.117188 -24.375 5.578125 -27.03125 C 6.035156 -29.695312 6.421875 -32.265625 6.734375 -34.734375 C 7.046875 -37.210938 7.203125 -39.4375 7.203125 -41.40625 C 7.203125 -42.457031 7.140625 -43.425781 7.015625 -44.3125 C 6.898438 -45.195312 6.648438 -45.90625 6.265625 -46.4375 L 6.265625 -46.875 C 7.316406 -48.070312 8.46875 -48.957031 9.71875 -49.53125 C 10.96875 -50.113281 12.191406 -50.40625 13.390625 -50.40625 C 15.210938 -50.40625 16.769531 -49.753906 18.0625 -48.453125 C 19.363281 -47.160156 20.015625 -45.242188 20.015625 -42.703125 C 20.015625 -41.359375 19.832031 -39.722656 19.46875 -37.796875 C 19.113281 -35.878906 18.679688 -33.863281 18.171875 -31.75 C 17.671875 -29.632812 17.15625 -27.617188 16.625 -25.703125 C 17.6875 -27.242188 18.890625 -28.828125 20.234375 -30.453125 C 21.578125 -32.085938 23.085938 -33.46875 24.765625 -34.59375 C 26.441406 -35.71875 28.335938 -36.28125 30.453125 -36.28125 C 32.898438 -36.28125 34.816406 -35.5 36.203125 -33.9375 C 37.597656 -32.382812 38.296875 -30.53125 38.296875 -28.375 C 38.296875 -26.207031 37.515625 -23.898438 35.953125 -21.453125 C 34.398438 -19.003906 31.800781 -16.941406 28.15625 -15.265625 C 28.78125 -13.867188 29.644531 -12.617188 30.75 -11.515625 C 31.851562 -10.410156 33.0625 -9.554688 34.375 -8.953125 C 35.695312 -8.359375 36.9375 -8.0625 38.09375 -8.0625 C 38.664062 -8.0625 39.164062 -8.160156 39.59375 -8.359375 L 40.03125 -7.921875 C 38.832031 -5.140625 37.1875 -3.0625 35.09375 -1.6875 C 33.007812 -0.320312 30.910156 0.359375 28.796875 0.359375 Z M 28.796875 0.359375 "/></g></g></g><g fill="#3f7d58" fill-opacity="1"><g transform="translate(28.453128, 231.482094)"><g><path d="M 7.46875 0.203125 C 5.769531 0.203125 4.378906 -0.113281 3.296875 -0.75 C 2.222656 -1.382812 1.6875 -2.421875 1.6875 -3.859375 C 1.6875 -4.015625 1.6875 -4.148438 1.6875 -4.265625 C 1.695312 -4.390625 1.710938 -4.488281 1.734375 -4.5625 C 1.804688 -5.082031 1.960938 -5.722656 2.203125 -6.484375 C 2.453125 -7.253906 2.734375 -8.070312 3.046875 -8.9375 C 3.367188 -9.8125 3.675781 -10.664062 3.96875 -11.5 C 4.269531 -12.34375 4.523438 -13.113281 4.734375 -13.8125 C 4.941406 -14.519531 5.046875 -15.085938 5.046875 -15.515625 C 5.046875 -15.992188 4.882812 -16.234375 4.5625 -16.234375 C 4.207031 -16.234375 3.769531 -15.96875 3.25 -15.4375 C 2.726562 -14.90625 2.175781 -14.164062 1.59375 -13.21875 L 1.421875 -13.296875 C 1.421875 -14.523438 1.664062 -15.585938 2.15625 -16.484375 C 2.644531 -17.390625 3.289062 -18.132812 4.09375 -18.71875 C 4.894531 -19.300781 5.789062 -19.734375 6.78125 -20.015625 C 7.769531 -20.296875 8.765625 -20.4375 9.765625 -20.4375 C 11.015625 -20.4375 12.191406 -20.234375 13.296875 -19.828125 C 14.398438 -19.429688 15.300781 -18.859375 16 -18.109375 C 16.695312 -17.367188 17.046875 -16.457031 17.046875 -15.375 C 17.046875 -13.425781 15.863281 -11.914062 13.5 -10.84375 C 14.894531 -10.519531 15.921875 -9.984375 16.578125 -9.234375 C 17.234375 -8.492188 17.5625 -7.664062 17.5625 -6.75 C 17.5625 -5.945312 17.320312 -5.140625 16.84375 -4.328125 C 16.363281 -3.515625 15.6875 -2.765625 14.8125 -2.078125 C 13.9375 -1.398438 12.875 -0.847656 11.625 -0.421875 C 10.382812 -0.00390625 9 0.203125 7.46875 0.203125 Z M 8.5625 -11.671875 C 9.425781 -11.648438 10.175781 -11.785156 10.8125 -12.078125 C 11.457031 -12.367188 11.960938 -12.742188 12.328125 -13.203125 C 12.691406 -13.660156 12.875 -14.128906 12.875 -14.609375 C 12.875 -15.242188 12.535156 -15.804688 11.859375 -16.296875 C 11.191406 -16.796875 10.140625 -17.046875 8.703125 -17.046875 C 8.773438 -16.691406 8.828125 -16.335938 8.859375 -15.984375 C 8.890625 -15.628906 8.90625 -15.285156 8.90625 -14.953125 C 8.90625 -14.410156 8.867188 -13.867188 8.796875 -13.328125 C 8.734375 -12.785156 8.65625 -12.234375 8.5625 -11.671875 Z M 8.265625 -3.21875 C 9.066406 -3.21875 9.773438 -3.378906 10.390625 -3.703125 C 11.003906 -4.035156 11.488281 -4.457031 11.84375 -4.96875 C 12.195312 -5.476562 12.375 -6.003906 12.375 -6.546875 C 12.375 -7.296875 12.019531 -7.988281 11.3125 -8.625 C 10.601562 -9.257812 9.492188 -9.648438 7.984375 -9.796875 C 7.910156 -9.222656 7.753906 -8.609375 7.515625 -7.953125 C 7.285156 -7.296875 7.066406 -6.671875 6.859375 -6.078125 C 6.648438 -5.484375 6.546875 -4.960938 6.546875 -4.515625 C 6.546875 -4.117188 6.664062 -3.800781 6.90625 -3.5625 C 7.15625 -3.332031 7.609375 -3.21875 8.265625 -3.21875 Z M 8.265625 -3.21875 "/></g></g></g><g fill="#3f7d58" fill-opacity="1"><g transform="translate(46.874612, 231.482094)"><g><path d="M 4.5625 0.109375 C 3.71875 0.109375 3.007812 -0.234375 2.4375 -0.921875 C 1.875 -1.609375 1.59375 -2.535156 1.59375 -3.703125 C 1.59375 -4.328125 1.664062 -5.003906 1.8125 -5.734375 C 1.96875 -6.460938 2.117188 -7.15625 2.265625 -7.8125 C 2.398438 -8.300781 2.507812 -8.753906 2.59375 -9.171875 C 2.675781 -9.585938 2.71875 -9.925781 2.71875 -10.1875 C 2.71875 -10.53125 2.644531 -10.773438 2.5 -10.921875 C 2.363281 -11.066406 2.203125 -11.140625 2.015625 -11.140625 C 1.828125 -11.140625 1.640625 -11.078125 1.453125 -10.953125 C 1.265625 -10.835938 1.117188 -10.660156 1.015625 -10.421875 L 0.78125 -10.5 C 0.78125 -11.257812 0.96875 -11.910156 1.34375 -12.453125 C 1.71875 -12.992188 2.191406 -13.40625 2.765625 -13.6875 C 3.347656 -13.96875 3.9375 -14.109375 4.53125 -14.109375 C 5.019531 -14.109375 5.488281 -14.007812 5.9375 -13.8125 C 6.382812 -13.625 6.75 -13.320312 7.03125 -12.90625 C 7.320312 -12.5 7.46875 -11.988281 7.46875 -11.375 C 7.46875 -11 7.414062 -10.546875 7.3125 -10.015625 C 7.21875 -9.492188 7.101562 -8.957031 6.96875 -8.40625 C 6.84375 -7.820312 6.71875 -7.234375 6.59375 -6.640625 C 6.46875 -6.054688 6.40625 -5.539062 6.40625 -5.09375 C 6.40625 -4.6875 6.46875 -4.351562 6.59375 -4.09375 C 6.726562 -3.832031 6.929688 -3.703125 7.203125 -3.703125 C 7.679688 -3.703125 8.222656 -4.148438 8.828125 -5.046875 C 9.441406 -5.941406 9.929688 -7.144531 10.296875 -8.65625 C 10.378906 -8.945312 10.445312 -9.257812 10.5 -9.59375 C 10.550781 -9.9375 10.578125 -10.285156 10.578125 -10.640625 C 10.578125 -10.921875 10.554688 -11.203125 10.515625 -11.484375 C 10.484375 -11.773438 10.429688 -12.070312 10.359375 -12.375 L 10.359375 -12.578125 C 10.660156 -13.078125 11.046875 -13.457031 11.515625 -13.71875 C 11.992188 -13.976562 12.476562 -14.109375 12.96875 -14.109375 C 13.613281 -14.109375 14.195312 -13.882812 14.71875 -13.4375 C 15.25 -12.988281 15.515625 -12.335938 15.515625 -11.484375 C 15.515625 -10.972656 15.421875 -10.382812 15.234375 -9.71875 C 15.046875 -9.0625 14.835938 -8.378906 14.609375 -7.671875 C 14.390625 -6.984375 14.1875 -6.300781 14 -5.625 C 13.8125 -4.957031 13.71875 -4.363281 13.71875 -3.84375 C 13.71875 -3.070312 13.988281 -2.6875 14.53125 -2.6875 C 14.675781 -2.6875 14.859375 -2.726562 15.078125 -2.8125 C 15.296875 -2.894531 15.5 -3.066406 15.6875 -3.328125 L 15.875 -3.28125 C 15.875 -2.601562 15.691406 -2.007812 15.328125 -1.5 C 14.960938 -0.988281 14.5 -0.59375 13.9375 -0.3125 C 13.382812 -0.03125 12.804688 0.109375 12.203125 0.109375 C 11.441406 0.109375 10.753906 -0.164062 10.140625 -0.71875 C 9.535156 -1.28125 9.234375 -2.195312 9.234375 -3.46875 L 9.234375 -3.53125 C 8.472656 -2.21875 7.679688 -1.28125 6.859375 -0.71875 C 6.035156 -0.164062 5.269531 0.109375 4.5625 0.109375 Z M 4.5625 0.109375 "/></g></g></g><g fill="#3f7d58" fill-opacity="1"><g transform="translate(63.364357, 231.482094)"><g><path d="M 6.109375 -14.984375 C 5.359375 -14.984375 4.742188 -15.210938 4.265625 -15.671875 C 3.796875 -16.128906 3.5625 -16.703125 3.5625 -17.390625 C 3.5625 -18.140625 3.835938 -18.78125 4.390625 -19.3125 C 4.953125 -19.851562 5.632812 -20.125 6.4375 -20.125 C 7.1875 -20.125 7.796875 -19.890625 8.265625 -19.421875 C 8.742188 -18.960938 8.984375 -18.390625 8.984375 -17.703125 C 8.984375 -16.953125 8.703125 -16.3125 8.140625 -15.78125 C 7.585938 -15.25 6.910156 -14.984375 6.109375 -14.984375 Z M 4.140625 0.109375 C 3.410156 0.109375 2.753906 -0.144531 2.171875 -0.65625 C 1.597656 -1.164062 1.3125 -1.992188 1.3125 -3.140625 C 1.3125 -3.785156 1.398438 -4.394531 1.578125 -4.96875 C 1.753906 -5.539062 1.957031 -6.097656 2.1875 -6.640625 C 2.425781 -7.179688 2.632812 -7.707031 2.8125 -8.21875 C 2.988281 -8.726562 3.078125 -9.238281 3.078125 -9.75 C 3.078125 -10.195312 3 -10.515625 2.84375 -10.703125 C 2.695312 -10.898438 2.523438 -11 2.328125 -11 C 2.003906 -11 1.695312 -10.796875 1.40625 -10.390625 L 1.203125 -10.5 C 1.273438 -11.25 1.507812 -11.890625 1.90625 -12.421875 C 2.3125 -12.953125 2.804688 -13.363281 3.390625 -13.65625 C 3.984375 -13.957031 4.570312 -14.109375 5.15625 -14.109375 C 5.863281 -14.109375 6.476562 -13.878906 7 -13.421875 C 7.519531 -12.960938 7.78125 -12.222656 7.78125 -11.203125 C 7.78125 -10.585938 7.691406 -9.9375 7.515625 -9.25 C 7.335938 -8.570312 7.128906 -7.894531 6.890625 -7.21875 C 6.660156 -6.550781 6.457031 -5.925781 6.28125 -5.34375 C 6.101562 -4.769531 6.015625 -4.273438 6.015625 -3.859375 C 6.015625 -3.503906 6.082031 -3.253906 6.21875 -3.109375 C 6.363281 -2.960938 6.519531 -2.890625 6.6875 -2.890625 C 6.851562 -2.890625 7.015625 -2.9375 7.171875 -3.03125 C 7.335938 -3.132812 7.457031 -3.253906 7.53125 -3.390625 L 7.734375 -3.328125 C 7.734375 -2.640625 7.550781 -2.035156 7.1875 -1.515625 C 6.820312 -1.003906 6.367188 -0.601562 5.828125 -0.3125 C 5.285156 -0.03125 4.722656 0.109375 4.140625 0.109375 Z M 4.140625 0.109375 "/></g></g></g><g fill="#3f7d58" fill-opacity="1"><g transform="translate(72.463119, 231.482094)"><g><path d="M 4.03125 0.109375 C 3.53125 0.109375 3.039062 -0.015625 2.5625 -0.265625 C 2.082031 -0.515625 1.691406 -0.921875 1.390625 -1.484375 C 1.097656 -2.046875 0.953125 -2.765625 0.953125 -3.640625 C 0.953125 -4.421875 1.054688 -5.335938 1.265625 -6.390625 C 1.484375 -7.453125 1.726562 -8.550781 2 -9.6875 C 2.269531 -10.820312 2.507812 -11.929688 2.71875 -13.015625 C 2.925781 -14.097656 3.019531 -15.0625 3 -15.90625 C 3 -16.707031 2.90625 -17.273438 2.71875 -17.609375 L 2.6875 -17.703125 C 2.894531 -18.296875 3.257812 -18.757812 3.78125 -19.09375 C 4.300781 -19.425781 4.851562 -19.59375 5.4375 -19.59375 C 6.082031 -19.59375 6.660156 -19.34375 7.171875 -18.84375 C 7.691406 -18.351562 7.953125 -17.53125 7.953125 -16.375 C 7.953125 -15.757812 7.875 -15.023438 7.71875 -14.171875 C 7.570312 -13.328125 7.394531 -12.425781 7.1875 -11.46875 C 6.988281 -10.507812 6.78125 -9.5625 6.5625 -8.625 C 6.351562 -7.6875 6.171875 -6.828125 6.015625 -6.046875 C 5.867188 -5.265625 5.796875 -4.617188 5.796875 -4.109375 C 5.796875 -3.585938 5.867188 -3.226562 6.015625 -3.03125 C 6.171875 -2.84375 6.34375 -2.75 6.53125 -2.75 C 6.726562 -2.75 6.921875 -2.828125 7.109375 -2.984375 C 7.296875 -3.140625 7.414062 -3.285156 7.46875 -3.421875 L 7.703125 -3.359375 C 7.679688 -2.691406 7.488281 -2.09375 7.125 -1.5625 C 6.757812 -1.039062 6.300781 -0.628906 5.75 -0.328125 C 5.195312 -0.0351562 4.625 0.109375 4.03125 0.109375 Z M 4.03125 0.109375 "/></g></g></g><g fill="#3f7d58" fill-opacity="1"><g transform="translate(81.029948, 231.482094)"><g><path d="M 4.84375 0.109375 C 4.175781 0.109375 3.546875 -0.117188 2.953125 -0.578125 C 2.367188 -1.046875 1.894531 -1.726562 1.53125 -2.625 C 1.164062 -3.519531 0.984375 -4.601562 0.984375 -5.875 C 0.984375 -7.1875 1.164062 -8.351562 1.53125 -9.375 C 1.90625 -10.40625 2.394531 -11.28125 3 -12 C 3.613281 -12.71875 4.28125 -13.265625 5 -13.640625 C 5.71875 -14.015625 6.421875 -14.203125 7.109375 -14.203125 C 7.878906 -14.203125 8.5625 -13.960938 9.15625 -13.484375 C 9.75 -13.003906 10.160156 -12.257812 10.390625 -11.25 C 10.554688 -12.1875 10.695312 -13.078125 10.8125 -13.921875 C 10.9375 -14.773438 11 -15.53125 11 -16.1875 C 11 -17.039062 10.890625 -17.664062 10.671875 -18.0625 L 10.671875 -18.234375 C 11.097656 -18.710938 11.566406 -19.066406 12.078125 -19.296875 C 12.597656 -19.535156 13.085938 -19.65625 13.546875 -19.65625 C 14.160156 -19.65625 14.679688 -19.460938 15.109375 -19.078125 C 15.546875 -18.703125 15.765625 -18.15625 15.765625 -17.4375 C 15.765625 -17.050781 15.695312 -16.472656 15.5625 -15.703125 C 15.4375 -14.941406 15.28125 -14.070312 15.09375 -13.09375 C 14.90625 -12.113281 14.710938 -11.101562 14.515625 -10.0625 C 14.316406 -9.03125 14.148438 -8.039062 14.015625 -7.09375 C 13.890625 -6.15625 13.828125 -5.335938 13.828125 -4.640625 C 13.828125 -4.066406 13.890625 -3.609375 14.015625 -3.265625 C 14.140625 -2.921875 14.335938 -2.75 14.609375 -2.75 C 14.816406 -2.75 15.023438 -2.816406 15.234375 -2.953125 C 15.453125 -3.085938 15.601562 -3.25 15.6875 -3.4375 L 15.875 -3.296875 C 15.875 -2.679688 15.675781 -2.117188 15.28125 -1.609375 C 14.894531 -1.097656 14.398438 -0.679688 13.796875 -0.359375 C 13.203125 -0.046875 12.585938 0.109375 11.953125 0.109375 C 11.265625 0.109375 10.71875 -0.078125 10.3125 -0.453125 C 9.914062 -0.835938 9.632812 -1.328125 9.46875 -1.921875 C 9.300781 -2.523438 9.207031 -3.144531 9.1875 -3.78125 C 8.601562 -2.4375 7.921875 -1.453125 7.140625 -0.828125 C 6.367188 -0.203125 5.601562 0.109375 4.84375 0.109375 Z M 6.71875 -3.4375 C 7.207031 -3.4375 7.75 -3.875 8.34375 -4.75 C 8.9375 -5.632812 9.457031 -6.914062 9.90625 -8.59375 L 10.078125 -9.46875 C 9.773438 -10.15625 9.453125 -10.644531 9.109375 -10.9375 C 8.765625 -11.226562 8.4375 -11.375 8.125 -11.375 C 7.65625 -11.375 7.210938 -11.113281 6.796875 -10.59375 C 6.390625 -10.082031 6.0625 -9.429688 5.8125 -8.640625 C 5.5625 -7.847656 5.4375 -7.007812 5.4375 -6.125 C 5.4375 -5.289062 5.554688 -4.632812 5.796875 -4.15625 C 6.035156 -3.675781 6.34375 -3.4375 6.71875 -3.4375 Z M 6.71875 -3.4375 "/></g></g></g><g fill="#3f7d58" fill-opacity="1"><g transform="translate(97.323725, 231.482094)"><g><path d="M 0.0625 4.234375 C -0.09375 4.078125 -0.21875 3.859375 -0.3125 3.578125 C 0.320312 3.148438 0.742188 2.695312 0.953125 2.21875 C 1.160156 1.75 1.265625 1.253906 1.265625 0.734375 C 1.265625 0.171875 1.203125 -0.382812 1.078125 -0.9375 C 0.953125 -1.488281 0.890625 -2 0.890625 -2.46875 C 0.890625 -3.300781 1.144531 -3.960938 1.65625 -4.453125 C 2.175781 -4.941406 2.863281 -5.1875 3.71875 -5.1875 C 4.632812 -5.1875 5.3125 -4.925781 5.75 -4.40625 C 6.1875 -3.894531 6.40625 -3.253906 6.40625 -2.484375 C 6.40625 -1.703125 6.164062 -0.859375 5.6875 0.046875 C 5.21875 0.960938 4.515625 1.800781 3.578125 2.5625 C 2.648438 3.320312 1.476562 3.878906 0.0625 4.234375 Z M 0.0625 4.234375 "/></g></g></g><g fill="#3f7d58" fill-opacity="1"><g transform="translate(104.574735, 231.482094)"><g/></g></g><g fill="#3f7d58" fill-opacity="1"><g transform="translate(109.614049, 231.482094)"><g><path d="M 7.46875 0.203125 C 5.769531 0.203125 4.378906 -0.113281 3.296875 -0.75 C 2.222656 -1.382812 1.6875 -2.421875 1.6875 -3.859375 C 1.6875 -4.015625 1.6875 -4.148438 1.6875 -4.265625 C 1.695312 -4.390625 1.710938 -4.488281 1.734375 -4.5625 C 1.804688 -5.082031 1.960938 -5.722656 2.203125 -6.484375 C 2.453125 -7.253906 2.734375 -8.070312 3.046875 -8.9375 C 3.367188 -9.8125 3.675781 -10.664062 3.96875 -11.5 C 4.269531 -12.34375 4.523438 -13.113281 4.734375 -13.8125 C 4.941406 -14.519531 5.046875 -15.085938 5.046875 -15.515625 C 5.046875 -15.992188 4.882812 -16.234375 4.5625 -16.234375 C 4.207031 -16.234375 3.769531 -15.96875 3.25 -15.4375 C 2.726562 -14.90625 2.175781 -14.164062 1.59375 -13.21875 L 1.421875 -13.296875 C 1.421875 -14.523438 1.664062 -15.585938 2.15625 -16.484375 C 2.644531 -17.390625 3.289062 -18.132812 4.09375 -18.71875 C 4.894531 -19.300781 5.789062 -19.734375 6.78125 -20.015625 C 7.769531 -20.296875 8.765625 -20.4375 9.765625 -20.4375 C 11.015625 -20.4375 12.191406 -20.234375 13.296875 -19.828125 C 14.398438 -19.429688 15.300781 -18.859375 16 -18.109375 C 16.695312 -17.367188 17.046875 -16.457031 17.046875 -15.375 C 17.046875 -13.425781 15.863281 -11.914062 13.5 -10.84375 C 14.894531 -10.519531 15.921875 -9.984375 16.578125 -9.234375 C 17.234375 -8.492188 17.5625 -7.664062 17.5625 -6.75 C 17.5625 -5.945312 17.320312 -5.140625 16.84375 -4.328125 C 16.363281 -3.515625 15.6875 -2.765625 14.8125 -2.078125 C 13.9375 -1.398438 12.875 -0.847656 11.625 -0.421875 C 10.382812 -0.00390625 9 0.203125 7.46875 0.203125 Z M 8.5625 -11.671875 C 9.425781 -11.648438 10.175781 -11.785156 10.8125 -12.078125 C 11.457031 -12.367188 11.960938 -12.742188 12.328125 -13.203125 C 12.691406 -13.660156 12.875 -14.128906 12.875 -14.609375 C 12.875 -15.242188 12.535156 -15.804688 11.859375 -16.296875 C 11.191406 -16.796875 10.140625 -17.046875 8.703125 -17.046875 C 8.773438 -16.691406 8.828125 -16.335938 8.859375 -15.984375 C 8.890625 -15.628906 8.90625 -15.285156 8.90625 -14.953125 C 8.90625 -14.410156 8.867188 -13.867188 8.796875 -13.328125 C 8.734375 -12.785156 8.65625 -12.234375 8.5625 -11.671875 Z M 8.265625 -3.21875 C 9.066406 -3.21875 9.773438 -3.378906 10.390625 -3.703125 C 11.003906 -4.035156 11.488281 -4.457031 11.84375 -4.96875 C 12.195312 -5.476562 12.375 -6.003906 12.375 -6.546875 C 12.375 -7.296875 12.019531 -7.988281 11.3125 -8.625 C 10.601562 -9.257812 9.492188 -9.648438 7.984375 -9.796875 C 7.910156 -9.222656 7.753906 -8.609375 7.515625 -7.953125 C 7.285156 -7.296875 7.066406 -6.671875 6.859375 -6.078125 C 6.648438 -5.484375 6.546875 -4.960938 6.546875 -4.515625 C 6.546875 -4.117188 6.664062 -3.800781 6.90625 -3.5625 C 7.15625 -3.332031 7.609375 -3.21875 8.265625 -3.21875 Z M 8.265625 -3.21875 "/></g></g></g><g fill="#3f7d58" fill-opacity="1"><g transform="translate(128.035534, 231.482094)"><g><path d="M 6.109375 -14.984375 C 5.359375 -14.984375 4.742188 -15.210938 4.265625 -15.671875 C 3.796875 -16.128906 3.5625 -16.703125 3.5625 -17.390625 C 3.5625 -18.140625 3.835938 -18.78125 4.390625 -19.3125 C 4.953125 -19.851562 5.632812 -20.125 6.4375 -20.125 C 7.1875 -20.125 7.796875 -19.890625 8.265625 -19.421875 C 8.742188 -18.960938 8.984375 -18.390625 8.984375 -17.703125 C 8.984375 -16.953125 8.703125 -16.3125 8.140625 -15.78125 C 7.585938 -15.25 6.910156 -14.984375 6.109375 -14.984375 Z M 4.140625 0.109375 C 3.410156 0.109375 2.753906 -0.144531 2.171875 -0.65625 C 1.597656 -1.164062 1.3125 -1.992188 1.3125 -3.140625 C 1.3125 -3.785156 1.398438 -4.394531 1.578125 -4.96875 C 1.753906 -5.539062 1.957031 -6.097656 2.1875 -6.640625 C 2.425781 -7.179688 2.632812 -7.707031 2.8125 -8.21875 C 2.988281 -8.726562 3.078125 -9.238281 3.078125 -9.75 C 3.078125 -10.195312 3 -10.515625 2.84375 -10.703125 C 2.695312 -10.898438 2.523438 -11 2.328125 -11 C 2.003906 -11 1.695312 -10.796875 1.40625 -10.390625 L 1.203125 -10.5 C 1.273438 -11.25 1.507812 -11.890625 1.90625 -12.421875 C 2.3125 -12.953125 2.804688 -13.363281 3.390625 -13.65625 C 3.984375 -13.957031 4.570312 -14.109375 5.15625 -14.109375 C 5.863281 -14.109375 6.476562 -13.878906 7 -13.421875 C 7.519531 -12.960938 7.78125 -12.222656 7.78125 -11.203125 C 7.78125 -10.585938 7.691406 -9.9375 7.515625 -9.25 C 7.335938 -8.570312 7.128906 -7.894531 6.890625 -7.21875 C 6.660156 -6.550781 6.457031 -5.925781 6.28125 -5.34375 C 6.101562 -4.769531 6.015625 -4.273438 6.015625 -3.859375 C 6.015625 -3.503906 6.082031 -3.253906 6.21875 -3.109375 C 6.363281 -2.960938 6.519531 -2.890625 6.6875 -2.890625 C 6.851562 -2.890625 7.015625 -2.9375 7.171875 -3.03125 C 7.335938 -3.132812 7.457031 -3.253906 7.53125 -3.390625 L 7.734375 -3.328125 C 7.734375 -2.640625 7.550781 -2.035156 7.1875 -1.515625 C 6.820312 -1.003906 6.367188 -0.601562 5.828125 -0.3125 C 5.285156 -0.03125 4.722656 0.109375 4.140625 0.109375 Z M 4.140625 0.109375 "/></g></g></g><g fill="#3f7d58" fill-opacity="1"><g transform="translate(137.134296, 231.482094)"><g><path d="M 4.84375 0.109375 C 4.175781 0.109375 3.546875 -0.117188 2.953125 -0.578125 C 2.367188 -1.046875 1.894531 -1.726562 1.53125 -2.625 C 1.164062 -3.519531 0.984375 -4.601562 0.984375 -5.875 C 0.984375 -7.1875 1.164062 -8.351562 1.53125 -9.375 C 1.90625 -10.40625 2.394531 -11.28125 3 -12 C 3.613281 -12.71875 4.28125 -13.265625 5 -13.640625 C 5.71875 -14.015625 6.421875 -14.203125 7.109375 -14.203125 C 7.878906 -14.203125 8.5625 -13.960938 9.15625 -13.484375 C 9.75 -13.003906 10.160156 -12.257812 10.390625 -11.25 C 10.554688 -12.1875 10.695312 -13.078125 10.8125 -13.921875 C 10.9375 -14.773438 11 -15.53125 11 -16.1875 C 11 -17.039062 10.890625 -17.664062 10.671875 -18.0625 L 10.671875 -18.234375 C 11.097656 -18.710938 11.566406 -19.066406 12.078125 -19.296875 C 12.597656 -19.535156 13.085938 -19.65625 13.546875 -19.65625 C 14.160156 -19.65625 14.679688 -19.460938 15.109375 -19.078125 C 15.546875 -18.703125 15.765625 -18.15625 15.765625 -17.4375 C 15.765625 -17.050781 15.695312 -16.472656 15.5625 -15.703125 C 15.4375 -14.941406 15.28125 -14.070312 15.09375 -13.09375 C 14.90625 -12.113281 14.710938 -11.101562 14.515625 -10.0625 C 14.316406 -9.03125 14.148438 -8.039062 14.015625 -7.09375 C 13.890625 -6.15625 13.828125 -5.335938 13.828125 -4.640625 C 13.828125 -4.066406 13.890625 -3.609375 14.015625 -3.265625 C 14.140625 -2.921875 14.335938 -2.75 14.609375 -2.75 C 14.816406 -2.75 15.023438 -2.816406 15.234375 -2.953125 C 15.453125 -3.085938 15.601562 -3.25 15.6875 -3.4375 L 15.875 -3.296875 C 15.875 -2.679688 15.675781 -2.117188 15.28125 -1.609375 C 14.894531 -1.097656 14.398438 -0.679688 13.796875 -0.359375 C 13.203125 -0.046875 12.585938 0.109375 11.953125 0.109375 C 11.265625 0.109375 10.71875 -0.078125 10.3125 -0.453125 C 9.914062 -0.835938 9.632812 -1.328125 9.46875 -1.921875 C 9.300781 -2.523438 9.207031 -3.144531 9.1875 -3.78125 C 8.601562 -2.4375 7.921875 -1.453125 7.140625 -0.828125 C 6.367188 -0.203125 5.601562 0.109375 4.84375 0.109375 Z M 6.71875 -3.4375 C 7.207031 -3.4375 7.75 -3.875 8.34375 -4.75 C 8.9375 -5.632812 9.457031 -6.914062 9.90625 -8.59375 L 10.078125 -9.46875 C 9.773438 -10.15625 9.453125 -10.644531 9.109375 -10.9375 C 8.765625 -11.226562 8.4375 -11.375 8.125 -11.375 C 7.65625 -11.375 7.210938 -11.113281 6.796875 -10.59375 C 6.390625 -10.082031 6.0625 -9.429688 5.8125 -8.640625 C 5.5625 -7.847656 5.4375 -7.007812 5.4375 -6.125 C 5.4375 -5.289062 5.554688 -4.632812 5.796875 -4.15625 C 6.035156 -3.675781 6.34375 -3.4375 6.71875 -3.4375 Z M 6.71875 -3.4375 "/></g></g></g><g fill="#3f7d58" fill-opacity="1"><g transform="translate(153.428072, 231.482094)"><g><path d="M 0.0625 4.234375 C -0.09375 4.078125 -0.21875 3.859375 -0.3125 3.578125 C 0.320312 3.148438 0.742188 2.695312 0.953125 2.21875 C 1.160156 1.75 1.265625 1.253906 1.265625 0.734375 C 1.265625 0.171875 1.203125 -0.382812 1.078125 -0.9375 C 0.953125 -1.488281 0.890625 -2 0.890625 -2.46875 C 0.890625 -3.300781 1.144531 -3.960938 1.65625 -4.453125 C 2.175781 -4.941406 2.863281 -5.1875 3.71875 -5.1875 C 4.632812 -5.1875 5.3125 -4.925781 5.75 -4.40625 C 6.1875 -3.894531 6.40625 -3.253906 6.40625 -2.484375 C 6.40625 -1.703125 6.164062 -0.859375 5.6875 0.046875 C 5.21875 0.960938 4.515625 1.800781 3.578125 2.5625 C 2.648438 3.320312 1.476562 3.878906 0.0625 4.234375 Z M 0.0625 4.234375 "/></g></g></g><g fill="#3f7d58" fill-opacity="1"><g transform="translate(160.679083, 231.482094)"><g/></g></g><g fill="#3f7d58" fill-opacity="1"><g transform="translate(165.718397, 231.482094)"><g><path d="M 7.46875 0.203125 C 5.769531 0.203125 4.378906 -0.113281 3.296875 -0.75 C 2.222656 -1.382812 1.6875 -2.421875 1.6875 -3.859375 C 1.6875 -4.015625 1.6875 -4.148438 1.6875 -4.265625 C 1.695312 -4.390625 1.710938 -4.488281 1.734375 -4.5625 C 1.804688 -5.082031 1.960938 -5.722656 2.203125 -6.484375 C 2.453125 -7.253906 2.734375 -8.070312 3.046875 -8.9375 C 3.367188 -9.8125 3.675781 -10.664062 3.96875 -11.5 C 4.269531 -12.34375 4.523438 -13.113281 4.734375 -13.8125 C 4.941406 -14.519531 5.046875 -15.085938 5.046875 -15.515625 C 5.046875 -15.992188 4.882812 -16.234375 4.5625 -16.234375 C 4.207031 -16.234375 3.769531 -15.96875 3.25 -15.4375 C 2.726562 -14.90625 2.175781 -14.164062 1.59375 -13.21875 L 1.421875 -13.296875 C 1.421875 -14.523438 1.664062 -15.585938 2.15625 -16.484375 C 2.644531 -17.390625 3.289062 -18.132812 4.09375 -18.71875 C 4.894531 -19.300781 5.789062 -19.734375 6.78125 -20.015625 C 7.769531 -20.296875 8.765625 -20.4375 9.765625 -20.4375 C 11.015625 -20.4375 12.191406 -20.234375 13.296875 -19.828125 C 14.398438 -19.429688 15.300781 -18.859375 16 -18.109375 C 16.695312 -17.367188 17.046875 -16.457031 17.046875 -15.375 C 17.046875 -13.425781 15.863281 -11.914062 13.5 -10.84375 C 14.894531 -10.519531 15.921875 -9.984375 16.578125 -9.234375 C 17.234375 -8.492188 17.5625 -7.664062 17.5625 -6.75 C 17.5625 -5.945312 17.320312 -5.140625 16.84375 -4.328125 C 16.363281 -3.515625 15.6875 -2.765625 14.8125 -2.078125 C 13.9375 -1.398438 12.875 -0.847656 11.625 -0.421875 C 10.382812 -0.00390625 9 0.203125 7.46875 0.203125 Z M 8.5625 -11.671875 C 9.425781 -11.648438 10.175781 -11.785156 10.8125 -12.078125 C 11.457031 -12.367188 11.960938 -12.742188 12.328125 -13.203125 C 12.691406 -13.660156 12.875 -14.128906 12.875 -14.609375 C 12.875 -15.242188 12.535156 -15.804688 11.859375 -16.296875 C 11.191406 -16.796875 10.140625 -17.046875 8.703125 -17.046875 C 8.773438 -16.691406 8.828125 -16.335938 8.859375 -15.984375 C 8.890625 -15.628906 8.90625 -15.285156 8.90625 -14.953125 C 8.90625 -14.410156 8.867188 -13.867188 8.796875 -13.328125 C 8.734375 -12.785156 8.65625 -12.234375 8.5625 -11.671875 Z M 8.265625 -3.21875 C 9.066406 -3.21875 9.773438 -3.378906 10.390625 -3.703125 C 11.003906 -4.035156 11.488281 -4.457031 11.84375 -4.96875 C 12.195312 -5.476562 12.375 -6.003906 12.375 -6.546875 C 12.375 -7.296875 12.019531 -7.988281 11.3125 -8.625 C 10.601562 -9.257812 9.492188 -9.648438 7.984375 -9.796875 C 7.910156 -9.222656 7.753906 -8.609375 7.515625 -7.953125 C 7.285156 -7.296875 7.066406 -6.671875 6.859375 -6.078125 C 6.648438 -5.484375 6.546875 -4.960938 6.546875 -4.515625 C 6.546875 -4.117188 6.664062 -3.800781 6.90625 -3.5625 C 7.15625 -3.332031 7.609375 -3.21875 8.265625 -3.21875 Z M 8.265625 -3.21875 "/></g></g></g><g fill="#3f7d58" fill-opacity="1"><g transform="translate(184.139881, 231.482094)"><g><path d="M 4.109375 0.109375 C 3.441406 0.109375 2.847656 -0.164062 2.328125 -0.71875 C 1.804688 -1.269531 1.546875 -2.046875 1.546875 -3.046875 C 1.546875 -3.535156 1.597656 -4.085938 1.703125 -4.703125 C 1.816406 -5.316406 1.945312 -5.945312 2.09375 -6.59375 C 2.25 -7.238281 2.378906 -7.84375 2.484375 -8.40625 C 2.597656 -8.976562 2.65625 -9.453125 2.65625 -9.828125 C 2.65625 -10.222656 2.582031 -10.535156 2.4375 -10.765625 C 2.300781 -10.992188 2.125 -11.109375 1.90625 -11.109375 C 1.550781 -11.109375 1.1875 -10.867188 0.8125 -10.390625 L 0.640625 -10.5 C 0.617188 -10.800781 0.679688 -11.15625 0.828125 -11.5625 C 0.984375 -11.976562 1.21875 -12.375 1.53125 -12.75 C 1.851562 -13.132812 2.257812 -13.457031 2.75 -13.71875 C 3.25 -13.976562 3.835938 -14.109375 4.515625 -14.109375 C 5.492188 -14.109375 6.207031 -13.820312 6.65625 -13.25 C 7.113281 -12.6875 7.34375 -12.003906 7.34375 -11.203125 C 7.34375 -11.066406 7.335938 -10.925781 7.328125 -10.78125 C 7.316406 -10.644531 7.300781 -10.515625 7.28125 -10.390625 C 7.945312 -11.597656 8.648438 -12.523438 9.390625 -13.171875 C 10.128906 -13.816406 10.816406 -14.140625 11.453125 -14.140625 C 12.046875 -14.140625 12.484375 -13.90625 12.765625 -13.4375 C 13.046875 -12.96875 13.1875 -12.410156 13.1875 -11.765625 C 13.1875 -11.160156 13.066406 -10.550781 12.828125 -9.9375 C 12.597656 -9.320312 12.253906 -8.8125 11.796875 -8.40625 C 11.335938 -8.007812 10.785156 -7.820312 10.140625 -7.84375 L 10.03125 -7.890625 C 10.007812 -8.378906 9.847656 -8.765625 9.546875 -9.046875 C 9.242188 -9.328125 8.910156 -9.46875 8.546875 -9.46875 C 8.035156 -9.46875 7.5625 -9.210938 7.125 -8.703125 C 6.6875 -8.203125 6.46875 -7.476562 6.46875 -6.53125 C 6.46875 -5.945312 6.53125 -5.316406 6.65625 -4.640625 C 6.789062 -3.972656 6.859375 -3.40625 6.859375 -2.9375 C 6.859375 -2.375 6.726562 -1.859375 6.46875 -1.390625 C 6.207031 -0.929688 5.867188 -0.566406 5.453125 -0.296875 C 5.046875 -0.0234375 4.597656 0.109375 4.109375 0.109375 Z M 4.109375 0.109375 "/></g></g></g><g fill="#3f7d58" fill-opacity="1"><g transform="translate(197.326083, 231.482094)"><g><path d="M 6.859375 0.203125 C 5.492188 0.203125 4.363281 -0.0703125 3.46875 -0.625 C 2.570312 -1.175781 1.898438 -1.90625 1.453125 -2.8125 C 1.003906 -3.71875 0.78125 -4.691406 0.78125 -5.734375 C 0.78125 -6.722656 0.972656 -7.71875 1.359375 -8.71875 C 1.742188 -9.71875 2.300781 -10.628906 3.03125 -11.453125 C 3.769531 -12.273438 4.664062 -12.9375 5.71875 -13.4375 C 6.78125 -13.945312 7.972656 -14.203125 9.296875 -14.203125 C 10.941406 -14.203125 12.140625 -13.832031 12.890625 -13.09375 C 13.648438 -12.351562 14.03125 -11.460938 14.03125 -10.421875 C 14.03125 -9.523438 13.789062 -8.695312 13.3125 -7.9375 C 12.832031 -7.175781 12.203125 -6.566406 11.421875 -6.109375 C 10.640625 -5.660156 9.78125 -5.4375 8.84375 -5.4375 C 8.363281 -5.4375 7.867188 -5.507812 7.359375 -5.65625 C 6.859375 -5.800781 6.363281 -6.035156 5.875 -6.359375 C 5.96875 -5.203125 6.300781 -4.359375 6.875 -3.828125 C 7.457031 -3.304688 8.148438 -3.046875 8.953125 -3.046875 C 9.515625 -3.046875 10.078125 -3.15625 10.640625 -3.375 C 11.203125 -3.59375 11.71875 -3.875 12.1875 -4.21875 C 12.664062 -4.5625 13.035156 -4.925781 13.296875 -5.3125 L 13.5 -5.1875 C 13.5 -4.207031 13.296875 -3.378906 12.890625 -2.703125 C 12.492188 -2.023438 11.96875 -1.46875 11.3125 -1.03125 C 10.65625 -0.601562 9.941406 -0.289062 9.171875 -0.09375 C 8.398438 0.101562 7.628906 0.203125 6.859375 0.203125 Z M 7.5 -7.359375 C 8.101562 -7.359375 8.585938 -7.53125 8.953125 -7.875 C 9.328125 -8.226562 9.609375 -8.632812 9.796875 -9.09375 C 9.984375 -9.5625 10.078125 -9.972656 10.078125 -10.328125 C 10.078125 -10.753906 9.957031 -11.113281 9.71875 -11.40625 C 9.476562 -11.695312 9.140625 -11.84375 8.703125 -11.84375 C 8.367188 -11.84375 8 -11.71875 7.59375 -11.46875 C 7.195312 -11.226562 6.835938 -10.816406 6.515625 -10.234375 C 6.203125 -9.648438 6 -8.832031 5.90625 -7.78125 C 6.5 -7.5 7.03125 -7.359375 7.5 -7.359375 Z M 7.5 -7.359375 "/></g></g></g><g fill="#3f7d58" fill-opacity="1"><g transform="translate(211.912092, 231.482094)"><g><path d="M 11.03125 0.140625 C 10.375 0.140625 9.800781 -0.0703125 9.3125 -0.5 C 8.832031 -0.925781 8.59375 -1.628906 8.59375 -2.609375 C 8.59375 -2.703125 8.59375 -2.796875 8.59375 -2.890625 C 8.59375 -2.984375 8.601562 -3.070312 8.625 -3.15625 C 8.0625 -2.039062 7.429688 -1.21875 6.734375 -0.6875 C 6.035156 -0.15625 5.332031 0.109375 4.625 0.109375 C 3.96875 0.109375 3.347656 -0.117188 2.765625 -0.578125 C 2.191406 -1.035156 1.726562 -1.710938 1.375 -2.609375 C 1.019531 -3.503906 0.84375 -4.585938 0.84375 -5.859375 C 0.84375 -7.160156 1.023438 -8.320312 1.390625 -9.34375 C 1.753906 -10.375 2.234375 -11.242188 2.828125 -11.953125 C 3.421875 -12.660156 4.070312 -13.195312 4.78125 -13.5625 C 5.5 -13.925781 6.191406 -14.109375 6.859375 -14.109375 C 7.609375 -14.109375 8.28125 -13.878906 8.875 -13.421875 C 9.46875 -12.960938 9.878906 -12.238281 10.109375 -11.25 C 10.160156 -11.570312 10.203125 -11.863281 10.234375 -12.125 C 10.265625 -12.382812 10.28125 -12.5625 10.28125 -12.65625 C 10.289062 -13.15625 10.539062 -13.523438 11.03125 -13.765625 C 11.53125 -14.015625 12.082031 -14.140625 12.6875 -14.140625 C 13.207031 -14.140625 13.703125 -14.035156 14.171875 -13.828125 C 14.640625 -13.628906 14.957031 -13.285156 15.125 -12.796875 L 15.171875 -12.625 C 14.953125 -12.125 14.726562 -11.519531 14.5 -10.8125 C 14.28125 -10.101562 14.078125 -9.359375 13.890625 -8.578125 C 13.703125 -7.804688 13.550781 -7.050781 13.4375 -6.3125 C 13.320312 -5.570312 13.265625 -4.925781 13.265625 -4.375 C 13.265625 -3.75 13.328125 -3.320312 13.453125 -3.09375 C 13.585938 -2.863281 13.75 -2.75 13.9375 -2.75 C 14.257812 -2.75 14.550781 -2.972656 14.8125 -3.421875 L 15.03125 -3.296875 C 15.03125 -2.671875 14.820312 -2.09375 14.40625 -1.5625 C 14 -1.039062 13.488281 -0.625 12.875 -0.3125 C 12.257812 -0.0078125 11.644531 0.140625 11.03125 0.140625 Z M 6.46875 -3.421875 C 6.957031 -3.421875 7.492188 -3.851562 8.078125 -4.71875 C 8.660156 -5.582031 9.171875 -6.828125 9.609375 -8.453125 C 9.640625 -8.617188 9.671875 -8.78125 9.703125 -8.9375 C 9.742188 -9.101562 9.773438 -9.257812 9.796875 -9.40625 C 9.503906 -10.09375 9.191406 -10.582031 8.859375 -10.875 C 8.535156 -11.164062 8.210938 -11.3125 7.890625 -11.3125 C 7.429688 -11.3125 7 -11.0625 6.59375 -10.5625 C 6.1875 -10.070312 5.859375 -9.453125 5.609375 -8.703125 C 5.359375 -7.960938 5.234375 -7.21875 5.234375 -6.46875 C 5.234375 -5.4375 5.347656 -4.671875 5.578125 -4.171875 C 5.816406 -3.671875 6.113281 -3.421875 6.46875 -3.421875 Z M 6.46875 -3.421875 "/></g></g></g><g fill="#3f7d58" fill-opacity="1"><g transform="translate(227.701939, 231.482094)"><g><path d="M 11.203125 0.140625 C 10.585938 0.140625 10.007812 -0.00390625 9.46875 -0.296875 C 8.925781 -0.585938 8.484375 -1.007812 8.140625 -1.5625 C 7.804688 -2.125 7.640625 -2.796875 7.640625 -3.578125 C 7.640625 -4.378906 7.835938 -5.285156 8.234375 -6.296875 C 8.535156 -6.453125 8.890625 -6.6875 9.296875 -7 C 9.703125 -7.3125 10.0625 -7.671875 10.375 -8.078125 C 10.695312 -8.484375 10.859375 -8.878906 10.859375 -9.265625 C 10.859375 -9.617188 10.722656 -9.898438 10.453125 -10.109375 C 10.179688 -10.316406 9.851562 -10.421875 9.46875 -10.421875 C 8.976562 -10.421875 8.519531 -10.269531 8.09375 -9.96875 C 7.664062 -9.664062 7.285156 -9.273438 6.953125 -8.796875 C 6.628906 -8.328125 6.378906 -7.816406 6.203125 -7.265625 C 6.023438 -6.710938 5.9375 -6.1875 5.9375 -5.6875 C 5.9375 -5.195312 5.992188 -4.742188 6.109375 -4.328125 C 6.234375 -3.910156 6.296875 -3.429688 6.296875 -2.890625 C 6.296875 -2.046875 6.070312 -1.332031 5.625 -0.75 C 5.175781 -0.175781 4.515625 0.109375 3.640625 0.109375 C 2.835938 0.109375 2.191406 -0.160156 1.703125 -0.703125 C 1.222656 -1.242188 0.984375 -1.976562 0.984375 -2.90625 C 0.984375 -3.394531 1.039062 -4.039062 1.15625 -4.84375 C 1.28125 -5.644531 1.4375 -6.53125 1.625 -7.5 C 1.8125 -8.46875 1.992188 -9.46875 2.171875 -10.5 C 2.347656 -11.539062 2.492188 -12.539062 2.609375 -13.5 C 2.734375 -14.46875 2.796875 -15.332031 2.796875 -16.09375 C 2.796875 -16.507812 2.769531 -16.890625 2.71875 -17.234375 C 2.675781 -17.578125 2.582031 -17.851562 2.4375 -18.0625 L 2.4375 -18.234375 C 2.84375 -18.691406 3.289062 -19.03125 3.78125 -19.25 C 4.269531 -19.476562 4.742188 -19.59375 5.203125 -19.59375 C 5.910156 -19.59375 6.515625 -19.34375 7.015625 -18.84375 C 7.523438 -18.34375 7.78125 -17.597656 7.78125 -16.609375 C 7.78125 -16.078125 7.707031 -15.4375 7.5625 -14.6875 C 7.425781 -13.945312 7.257812 -13.164062 7.0625 -12.34375 C 6.875 -11.519531 6.675781 -10.738281 6.46875 -10 C 6.875 -10.59375 7.335938 -11.207031 7.859375 -11.84375 C 8.390625 -12.476562 8.976562 -13.015625 9.625 -13.453125 C 10.28125 -13.890625 11.019531 -14.109375 11.84375 -14.109375 C 12.789062 -14.109375 13.535156 -13.804688 14.078125 -13.203125 C 14.617188 -12.597656 14.890625 -11.875 14.890625 -11.03125 C 14.890625 -10.1875 14.585938 -9.289062 13.984375 -8.34375 C 13.378906 -7.394531 12.367188 -6.59375 10.953125 -5.9375 C 11.191406 -5.394531 11.523438 -4.910156 11.953125 -4.484375 C 12.378906 -4.054688 12.847656 -3.722656 13.359375 -3.484375 C 13.878906 -3.253906 14.363281 -3.140625 14.8125 -3.140625 C 15.03125 -3.140625 15.226562 -3.175781 15.40625 -3.25 L 15.5625 -3.078125 C 15.101562 -1.992188 14.46875 -1.1875 13.65625 -0.65625 C 12.84375 -0.125 12.023438 0.140625 11.203125 0.140625 Z M 11.203125 0.140625 "/></g></g></g><g fill="#3f7d58" fill-opacity="1"><g transform="translate(243.267826, 231.482094)"><g><path d="M 4.8125 0.109375 C 4.21875 0.109375 3.65625 -0.0234375 3.125 -0.296875 C 2.59375 -0.566406 2.160156 -0.988281 1.828125 -1.5625 C 1.503906 -2.144531 1.34375 -2.882812 1.34375 -3.78125 C 1.34375 -4.269531 1.390625 -4.90625 1.484375 -5.6875 C 1.578125 -6.46875 1.703125 -7.320312 1.859375 -8.25 C 2.015625 -9.1875 2.179688 -10.125 2.359375 -11.0625 C 1.984375 -11.039062 1.617188 -11 1.265625 -10.9375 C 0.921875 -10.882812 0.582031 -10.820312 0.25 -10.75 L 0.203125 -10.953125 C 0.566406 -11.398438 0.953125 -11.78125 1.359375 -12.09375 C 1.773438 -12.414062 2.207031 -12.675781 2.65625 -12.875 C 2.90625 -14.113281 3.113281 -15.179688 3.28125 -16.078125 C 3.445312 -16.984375 3.53125 -17.523438 3.53125 -17.703125 C 3.53125 -18.015625 3.773438 -18.269531 4.265625 -18.46875 C 4.765625 -18.675781 5.320312 -18.78125 5.9375 -18.78125 C 6.476562 -18.78125 6.984375 -18.675781 7.453125 -18.46875 C 7.929688 -18.269531 8.253906 -17.925781 8.421875 -17.4375 C 8.316406 -17.332031 8.160156 -16.921875 7.953125 -16.203125 C 7.742188 -15.484375 7.53125 -14.609375 7.3125 -13.578125 C 7.664062 -13.554688 8.023438 -13.535156 8.390625 -13.515625 C 8.765625 -13.503906 9.148438 -13.476562 9.546875 -13.4375 C 9.585938 -13.320312 9.613281 -13.195312 9.625 -13.0625 C 9.644531 -12.9375 9.65625 -12.800781 9.65625 -12.65625 C 9.65625 -12.375 9.613281 -12.066406 9.53125 -11.734375 C 9.445312 -11.410156 9.347656 -11.117188 9.234375 -10.859375 C 8.785156 -10.898438 8.363281 -10.941406 7.96875 -10.984375 C 7.582031 -11.035156 7.203125 -11.070312 6.828125 -11.09375 C 6.679688 -10.289062 6.546875 -9.484375 6.421875 -8.671875 C 6.304688 -7.867188 6.210938 -7.140625 6.140625 -6.484375 C 6.078125 -5.835938 6.046875 -5.328125 6.046875 -4.953125 C 6.046875 -4.171875 6.191406 -3.648438 6.484375 -3.390625 C 6.773438 -3.128906 7.125 -3 7.53125 -3 C 7.90625 -3 8.238281 -3.070312 8.53125 -3.21875 C 8.832031 -3.363281 9.050781 -3.539062 9.1875 -3.75 L 9.46875 -3.671875 C 9.351562 -2.898438 9.050781 -2.226562 8.5625 -1.65625 C 8.082031 -1.09375 7.503906 -0.65625 6.828125 -0.34375 C 6.160156 -0.0390625 5.488281 0.109375 4.8125 0.109375 Z M 4.8125 0.109375 "/></g></g></g><g fill="#3f7d58" fill-opacity="1"><g transform="translate(253.150485, 231.482094)"><g><path d="M 3.640625 0.109375 C 2.835938 0.109375 2.191406 -0.160156 1.703125 -0.703125 C 1.222656 -1.242188 0.984375 -1.976562 0.984375 -2.90625 C 0.984375 -3.414062 1.046875 -4.078125 1.171875 -4.890625 C 1.304688 -5.703125 1.46875 -6.597656 1.65625 -7.578125 C 1.851562 -8.554688 2.046875 -9.550781 2.234375 -10.5625 C 2.421875 -11.582031 2.578125 -12.566406 2.703125 -13.515625 C 2.835938 -14.472656 2.90625 -15.316406 2.90625 -16.046875 C 2.90625 -16.960938 2.785156 -17.625 2.546875 -18.03125 L 2.546875 -18.203125 C 2.953125 -18.671875 3.398438 -19.015625 3.890625 -19.234375 C 4.378906 -19.460938 4.851562 -19.578125 5.3125 -19.578125 C 6.03125 -19.578125 6.640625 -19.320312 7.140625 -18.8125 C 7.640625 -18.3125 7.890625 -17.554688 7.890625 -16.546875 C 7.890625 -16.003906 7.816406 -15.34375 7.671875 -14.5625 C 7.523438 -13.78125 7.347656 -12.957031 7.140625 -12.09375 C 6.929688 -11.238281 6.726562 -10.4375 6.53125 -9.6875 C 6.882812 -10.375 7.351562 -11.054688 7.9375 -11.734375 C 8.519531 -12.421875 9.191406 -12.988281 9.953125 -13.4375 C 10.710938 -13.882812 11.5 -14.109375 12.3125 -14.109375 C 13.25 -14.109375 13.878906 -13.816406 14.203125 -13.234375 C 14.535156 -12.660156 14.703125 -11.945312 14.703125 -11.09375 C 14.703125 -10.300781 14.617188 -9.460938 14.453125 -8.578125 C 14.285156 -7.691406 14.113281 -6.84375 13.9375 -6.03125 C 13.769531 -5.21875 13.6875 -4.539062 13.6875 -4 C 13.6875 -3.21875 13.921875 -2.828125 14.390625 -2.828125 C 14.597656 -2.828125 14.78125 -2.882812 14.9375 -3 C 15.09375 -3.125 15.207031 -3.265625 15.28125 -3.421875 L 15.484375 -3.28125 C 15.484375 -2.550781 15.304688 -1.929688 14.953125 -1.421875 C 14.597656 -0.921875 14.144531 -0.539062 13.59375 -0.28125 C 13.039062 -0.0195312 12.476562 0.109375 11.90625 0.109375 C 11.132812 0.109375 10.441406 -0.144531 9.828125 -0.65625 C 9.210938 -1.164062 8.90625 -2 8.90625 -3.15625 C 8.90625 -3.8125 8.992188 -4.519531 9.171875 -5.28125 C 9.347656 -6.050781 9.519531 -6.796875 9.6875 -7.515625 C 9.851562 -8.234375 9.9375 -8.835938 9.9375 -9.328125 C 9.9375 -9.960938 9.710938 -10.28125 9.265625 -10.28125 C 8.859375 -10.28125 8.410156 -10.070312 7.921875 -9.65625 C 7.441406 -9.25 7.019531 -8.738281 6.65625 -8.125 C 6.289062 -7.507812 6.050781 -6.898438 5.9375 -6.296875 C 5.894531 -6.148438 5.875 -5.972656 5.875 -5.765625 C 5.875 -5.296875 5.941406 -4.847656 6.078125 -4.421875 C 6.222656 -3.992188 6.296875 -3.488281 6.296875 -2.90625 C 6.296875 -2.050781 6.070312 -1.332031 5.625 -0.75 C 5.175781 -0.175781 4.515625 0.109375 3.640625 0.109375 Z M 3.640625 0.109375 "/></g></g></g><g fill="#3f7d58" fill-opacity="1"><g transform="translate(269.276285, 231.482094)"><g><path d="M 4.109375 0.109375 C 3.441406 0.109375 2.847656 -0.164062 2.328125 -0.71875 C 1.804688 -1.269531 1.546875 -2.046875 1.546875 -3.046875 C 1.546875 -3.535156 1.597656 -4.085938 1.703125 -4.703125 C 1.816406 -5.316406 1.945312 -5.945312 2.09375 -6.59375 C 2.25 -7.238281 2.378906 -7.84375 2.484375 -8.40625 C 2.597656 -8.976562 2.65625 -9.453125 2.65625 -9.828125 C 2.65625 -10.222656 2.582031 -10.535156 2.4375 -10.765625 C 2.300781 -10.992188 2.125 -11.109375 1.90625 -11.109375 C 1.550781 -11.109375 1.1875 -10.867188 0.8125 -10.390625 L 0.640625 -10.5 C 0.617188 -10.800781 0.679688 -11.15625 0.828125 -11.5625 C 0.984375 -11.976562 1.21875 -12.375 1.53125 -12.75 C 1.851562 -13.132812 2.257812 -13.457031 2.75 -13.71875 C 3.25 -13.976562 3.835938 -14.109375 4.515625 -14.109375 C 5.492188 -14.109375 6.207031 -13.820312 6.65625 -13.25 C 7.113281 -12.6875 7.34375 -12.003906 7.34375 -11.203125 C 7.34375 -11.066406 7.335938 -10.925781 7.328125 -10.78125 C 7.316406 -10.644531 7.300781 -10.515625 7.28125 -10.390625 C 7.945312 -11.597656 8.648438 -12.523438 9.390625 -13.171875 C 10.128906 -13.816406 10.816406 -14.140625 11.453125 -14.140625 C 12.046875 -14.140625 12.484375 -13.90625 12.765625 -13.4375 C 13.046875 -12.96875 13.1875 -12.410156 13.1875 -11.765625 C 13.1875 -11.160156 13.066406 -10.550781 12.828125 -9.9375 C 12.597656 -9.320312 12.253906 -8.8125 11.796875 -8.40625 C 11.335938 -8.007812 10.785156 -7.820312 10.140625 -7.84375 L 10.03125 -7.890625 C 10.007812 -8.378906 9.847656 -8.765625 9.546875 -9.046875 C 9.242188 -9.328125 8.910156 -9.46875 8.546875 -9.46875 C 8.035156 -9.46875 7.5625 -9.210938 7.125 -8.703125 C 6.6875 -8.203125 6.46875 -7.476562 6.46875 -6.53125 C 6.46875 -5.945312 6.53125 -5.316406 6.65625 -4.640625 C 6.789062 -3.972656 6.859375 -3.40625 6.859375 -2.9375 C 6.859375 -2.375 6.726562 -1.859375 6.46875 -1.390625 C 6.207031 -0.929688 5.867188 -0.566406 5.453125 -0.296875 C 5.046875 -0.0234375 4.597656 0.109375 4.109375 0.109375 Z M 4.109375 0.109375 "/></g></g></g><g fill="#3f7d58" fill-opacity="1"><g transform="translate(282.462487, 231.482094)"><g><path d="M 6.9375 0.203125 C 5.539062 0.203125 4.382812 -0.078125 3.46875 -0.640625 C 2.550781 -1.203125 1.875 -1.941406 1.4375 -2.859375 C 1 -3.785156 0.78125 -4.773438 0.78125 -5.828125 C 0.78125 -6.816406 0.960938 -7.804688 1.328125 -8.796875 C 1.691406 -9.785156 2.222656 -10.6875 2.921875 -11.5 C 3.617188 -12.3125 4.472656 -12.960938 5.484375 -13.453125 C 6.492188 -13.953125 7.648438 -14.203125 8.953125 -14.203125 C 10.359375 -14.203125 11.515625 -13.914062 12.421875 -13.34375 C 13.328125 -12.769531 14 -12.015625 14.4375 -11.078125 C 14.875 -10.148438 15.09375 -9.15625 15.09375 -8.09375 C 15.09375 -7.125 14.914062 -6.148438 14.5625 -5.171875 C 14.207031 -4.191406 13.675781 -3.296875 12.96875 -2.484375 C 12.269531 -1.671875 11.414062 -1.019531 10.40625 -0.53125 C 9.40625 -0.0390625 8.25 0.203125 6.9375 0.203125 Z M 7.703125 -2.1875 C 8.203125 -2.1875 8.617188 -2.445312 8.953125 -2.96875 C 9.296875 -3.488281 9.550781 -4.15625 9.71875 -4.96875 C 9.882812 -5.78125 9.96875 -6.609375 9.96875 -7.453125 C 9.96875 -8.191406 9.894531 -8.894531 9.75 -9.5625 C 9.613281 -10.226562 9.40625 -10.769531 9.125 -11.1875 C 8.84375 -11.601562 8.476562 -11.8125 8.03125 -11.8125 C 7.550781 -11.8125 7.132812 -11.550781 6.78125 -11.03125 C 6.4375 -10.507812 6.179688 -9.847656 6.015625 -9.046875 C 5.847656 -8.242188 5.765625 -7.410156 5.765625 -6.546875 C 5.765625 -5.804688 5.832031 -5.101562 5.96875 -4.4375 C 6.113281 -3.769531 6.328125 -3.226562 6.609375 -2.8125 C 6.890625 -2.394531 7.253906 -2.1875 7.703125 -2.1875 Z M 7.703125 -2.1875 "/></g></g></g><g fill="#3f7d58" fill-opacity="1"><g transform="translate(298.336335, 231.482094)"><g><path d="M 4.5625 0.109375 C 3.71875 0.109375 3.007812 -0.234375 2.4375 -0.921875 C 1.875 -1.609375 1.59375 -2.535156 1.59375 -3.703125 C 1.59375 -4.328125 1.664062 -5.003906 1.8125 -5.734375 C 1.96875 -6.460938 2.117188 -7.15625 2.265625 -7.8125 C 2.398438 -8.300781 2.507812 -8.753906 2.59375 -9.171875 C 2.675781 -9.585938 2.71875 -9.925781 2.71875 -10.1875 C 2.71875 -10.53125 2.644531 -10.773438 2.5 -10.921875 C 2.363281 -11.066406 2.203125 -11.140625 2.015625 -11.140625 C 1.828125 -11.140625 1.640625 -11.078125 1.453125 -10.953125 C 1.265625 -10.835938 1.117188 -10.660156 1.015625 -10.421875 L 0.78125 -10.5 C 0.78125 -11.257812 0.96875 -11.910156 1.34375 -12.453125 C 1.71875 -12.992188 2.191406 -13.40625 2.765625 -13.6875 C 3.347656 -13.96875 3.9375 -14.109375 4.53125 -14.109375 C 5.019531 -14.109375 5.488281 -14.007812 5.9375 -13.8125 C 6.382812 -13.625 6.75 -13.320312 7.03125 -12.90625 C 7.320312 -12.5 7.46875 -11.988281 7.46875 -11.375 C 7.46875 -11 7.414062 -10.546875 7.3125 -10.015625 C 7.21875 -9.492188 7.101562 -8.957031 6.96875 -8.40625 C 6.84375 -7.820312 6.71875 -7.234375 6.59375 -6.640625 C 6.46875 -6.054688 6.40625 -5.539062 6.40625 -5.09375 C 6.40625 -4.6875 6.46875 -4.351562 6.59375 -4.09375 C 6.726562 -3.832031 6.929688 -3.703125 7.203125 -3.703125 C 7.679688 -3.703125 8.222656 -4.148438 8.828125 -5.046875 C 9.441406 -5.941406 9.929688 -7.144531 10.296875 -8.65625 C 10.378906 -8.945312 10.445312 -9.257812 10.5 -9.59375 C 10.550781 -9.9375 10.578125 -10.285156 10.578125 -10.640625 C 10.578125 -10.921875 10.554688 -11.203125 10.515625 -11.484375 C 10.484375 -11.773438 10.429688 -12.070312 10.359375 -12.375 L 10.359375 -12.578125 C 10.660156 -13.078125 11.046875 -13.457031 11.515625 -13.71875 C 11.992188 -13.976562 12.476562 -14.109375 12.96875 -14.109375 C 13.613281 -14.109375 14.195312 -13.882812 14.71875 -13.4375 C 15.25 -12.988281 15.515625 -12.335938 15.515625 -11.484375 C 15.515625 -10.972656 15.421875 -10.382812 15.234375 -9.71875 C 15.046875 -9.0625 14.835938 -8.378906 14.609375 -7.671875 C 14.390625 -6.984375 14.1875 -6.300781 14 -5.625 C 13.8125 -4.957031 13.71875 -4.363281 13.71875 -3.84375 C 13.71875 -3.070312 13.988281 -2.6875 14.53125 -2.6875 C 14.675781 -2.6875 14.859375 -2.726562 15.078125 -2.8125 C 15.296875 -2.894531 15.5 -3.066406 15.6875 -3.328125 L 15.875 -3.28125 C 15.875 -2.601562 15.691406 -2.007812 15.328125 -1.5 C 14.960938 -0.988281 14.5 -0.59375 13.9375 -0.3125 C 13.382812 -0.03125 12.804688 0.109375 12.203125 0.109375 C 11.441406 0.109375 10.753906 -0.164062 10.140625 -0.71875 C 9.535156 -1.28125 9.234375 -2.195312 9.234375 -3.46875 L 9.234375 -3.53125 C 8.472656 -2.21875 7.679688 -1.28125 6.859375 -0.71875 C 6.035156 -0.164062 5.269531 0.109375 4.5625 0.109375 Z M 4.5625 0.109375 "/></g></g></g><g fill="#3f7d58" fill-opacity="1"><g transform="translate(314.826079, 231.482094)"><g><path d="M 7.640625 5.59375 C 6.722656 5.59375 5.96875 5.320312 5.375 4.78125 C 4.78125 4.238281 4.484375 3.472656 4.484375 2.484375 C 4.484375 1.421875 4.851562 0.171875 5.59375 -1.265625 C 5.46875 -1.222656 5.335938 -1.191406 5.203125 -1.171875 C 5.078125 -1.148438 4.945312 -1.140625 4.8125 -1.140625 C 3.726562 -1.140625 2.816406 -1.609375 2.078125 -2.546875 C 1.347656 -3.492188 0.984375 -4.8125 0.984375 -6.5 C 0.984375 -8.007812 1.273438 -9.34375 1.859375 -10.5 C 2.453125 -11.65625 3.203125 -12.5625 4.109375 -13.21875 C 5.023438 -13.875 5.976562 -14.203125 6.96875 -14.203125 C 7.664062 -14.203125 8.289062 -14.023438 8.84375 -13.671875 C 9.40625 -13.328125 9.863281 -12.773438 10.21875 -12.015625 C 10.238281 -12.203125 10.25 -12.367188 10.25 -12.515625 C 10.25 -12.660156 10.25 -12.800781 10.25 -12.9375 C 10.25 -13.25 10.488281 -13.507812 10.96875 -13.71875 C 11.457031 -13.925781 12 -14.03125 12.59375 -14.03125 C 13.132812 -14.03125 13.640625 -13.925781 14.109375 -13.71875 C 14.578125 -13.507812 14.882812 -13.164062 15.03125 -12.6875 L 15.09375 -12.515625 C 14.925781 -12.367188 14.78125 -11.882812 14.65625 -11.0625 C 14.53125 -10.238281 14.382812 -9.097656 14.21875 -7.640625 C 14.113281 -6.722656 13.972656 -5.679688 13.796875 -4.515625 C 13.628906 -3.347656 13.398438 -2.171875 13.109375 -0.984375 C 12.828125 0.191406 12.453125 1.28125 11.984375 2.28125 C 11.515625 3.28125 10.925781 4.082031 10.21875 4.6875 C 9.507812 5.289062 8.648438 5.59375 7.640625 5.59375 Z M 6.71875 -4.375 C 7.257812 -4.375 7.859375 -4.816406 8.515625 -5.703125 C 9.179688 -6.585938 9.710938 -7.859375 10.109375 -9.515625 C 9.773438 -10.242188 9.429688 -10.757812 9.078125 -11.0625 C 8.734375 -11.375 8.382812 -11.53125 8.03125 -11.53125 C 7.570312 -11.53125 7.132812 -11.296875 6.71875 -10.828125 C 6.3125 -10.367188 5.976562 -9.78125 5.71875 -9.0625 C 5.46875 -8.34375 5.34375 -7.597656 5.34375 -6.828125 C 5.34375 -6.046875 5.472656 -5.441406 5.734375 -5.015625 C 5.992188 -4.585938 6.320312 -4.375 6.71875 -4.375 Z M 6.390625 2.375 C 7.023438 2.375 7.671875 1.753906 8.328125 0.515625 C 8.992188 -0.722656 9.457031 -2.472656 9.71875 -4.734375 C 8.300781 -2.804688 7.316406 -1.320312 6.765625 -0.28125 C 6.210938 0.75 5.9375 1.476562 5.9375 1.90625 C 5.9375 2.21875 6.085938 2.375 6.390625 2.375 Z M 6.390625 2.375 "/></g></g></g><g fill="#3f7d58" fill-opacity="1"><g transform="translate(330.419935, 231.482094)"><g><path d="M 3.640625 0.109375 C 2.835938 0.109375 2.191406 -0.160156 1.703125 -0.703125 C 1.222656 -1.242188 0.984375 -1.976562 0.984375 -2.90625 C 0.984375 -3.414062 1.046875 -4.078125 1.171875 -4.890625 C 1.304688 -5.703125 1.46875 -6.597656 1.65625 -7.578125 C 1.851562 -8.554688 2.046875 -9.550781 2.234375 -10.5625 C 2.421875 -11.582031 2.578125 -12.566406 2.703125 -13.515625 C 2.835938 -14.472656 2.90625 -15.316406 2.90625 -16.046875 C 2.90625 -16.960938 2.785156 -17.625 2.546875 -18.03125 L 2.546875 -18.203125 C 2.953125 -18.671875 3.398438 -19.015625 3.890625 -19.234375 C 4.378906 -19.460938 4.851562 -19.578125 5.3125 -19.578125 C 6.03125 -19.578125 6.640625 -19.320312 7.140625 -18.8125 C 7.640625 -18.3125 7.890625 -17.554688 7.890625 -16.546875 C 7.890625 -16.003906 7.816406 -15.34375 7.671875 -14.5625 C 7.523438 -13.78125 7.347656 -12.957031 7.140625 -12.09375 C 6.929688 -11.238281 6.726562 -10.4375 6.53125 -9.6875 C 6.882812 -10.375 7.351562 -11.054688 7.9375 -11.734375 C 8.519531 -12.421875 9.191406 -12.988281 9.953125 -13.4375 C 10.710938 -13.882812 11.5 -14.109375 12.3125 -14.109375 C 13.25 -14.109375 13.878906 -13.816406 14.203125 -13.234375 C 14.535156 -12.660156 14.703125 -11.945312 14.703125 -11.09375 C 14.703125 -10.300781 14.617188 -9.460938 14.453125 -8.578125 C 14.285156 -7.691406 14.113281 -6.84375 13.9375 -6.03125 C 13.769531 -5.21875 13.6875 -4.539062 13.6875 -4 C 13.6875 -3.21875 13.921875 -2.828125 14.390625 -2.828125 C 14.597656 -2.828125 14.78125 -2.882812 14.9375 -3 C 15.09375 -3.125 15.207031 -3.265625 15.28125 -3.421875 L 15.484375 -3.28125 C 15.484375 -2.550781 15.304688 -1.929688 14.953125 -1.421875 C 14.597656 -0.921875 14.144531 -0.539062 13.59375 -0.28125 C 13.039062 -0.0195312 12.476562 0.109375 11.90625 0.109375 C 11.132812 0.109375 10.441406 -0.144531 9.828125 -0.65625 C 9.210938 -1.164062 8.90625 -2 8.90625 -3.15625 C 8.90625 -3.8125 8.992188 -4.519531 9.171875 -5.28125 C 9.347656 -6.050781 9.519531 -6.796875 9.6875 -7.515625 C 9.851562 -8.234375 9.9375 -8.835938 9.9375 -9.328125 C 9.9375 -9.960938 9.710938 -10.28125 9.265625 -10.28125 C 8.859375 -10.28125 8.410156 -10.070312 7.921875 -9.65625 C 7.441406 -9.25 7.019531 -8.738281 6.65625 -8.125 C 6.289062 -7.507812 6.050781 -6.898438 5.9375 -6.296875 C 5.894531 -6.148438 5.875 -5.972656 5.875 -5.765625 C 5.875 -5.296875 5.941406 -4.847656 6.078125 -4.421875 C 6.222656 -3.992188 6.296875 -3.488281 6.296875 -2.90625 C 6.296875 -2.050781 6.070312 -1.332031 5.625 -0.75 C 5.175781 -0.175781 4.515625 0.109375 3.640625 0.109375 Z M 3.640625 0.109375 "/></g></g></g></svg>